<?xml version="1.0" encoding="utf-8"?>
<!-- Generator: Adobe Illustrator 24.0.2, SVG Export Plug-In . SVG Version: 6.00 Build 0)  -->
<svg version="1.1" id="Capa_1" xmlns="http://www.w3.org/2000/svg" xmlns:xlink="http://www.w3.org/1999/xlink" x="0px" y="0px"
	 viewBox="0 0 1370.1 792" style="enable-background:new 0 0 1370.1 792;" xml:space="preserve">
<style type="text/css">
	.st0{fill:#EA5F1B;}
	.st1{fill:url(#Path_196_1_);}
	.st2{fill:url(#Path_197_1_);}
	.st3{opacity:0.2;fill:#FFFFFF;enable-background:new    ;}
	.st4{opacity:0.2;}
	.st5{fill:none;}
	.st6{fill:#FFFFFF;}
</style>
<g id="Group_182" transform="translate(0)">
	<path id="Path_152" class="st0" d="M0,794c0,0,138.5-112.9,310-121.4s208.5,80.6,376,87.6s159.5-115.4,308-125.4
		s188.5,92.5,286,85.6s90-47.8,90-47.8V2H0V794z"/>
	
		<linearGradient id="Path_196_1_" gradientUnits="userSpaceOnUse" x1="386.8629" y1="816.9089" x2="386.091" y2="816.1447" gradientTransform="matrix(496.379 0 0 -792 -191711.6563 646951.6875)">
		<stop  offset="0" style="stop-color:#FFFFFF;stop-opacity:0.161"/>
		<stop  offset="1" style="stop-color:#FFFFFF;stop-opacity:0"/>
	</linearGradient>
	<path id="Path_196" class="st1" d="M0-2h224.7C237.5,172.1,428,196.5,320,253.7c-115.2,61-150.8,143.9-119.5,228.6
		c13.8,37.3,23.4,64.4,29.9,83.1c-3.3,0.1-6.6,0.2-10,0.4C98.5,572.9,0,668.5,0,668.5V-2z"/>
	
		<linearGradient id="Path_197_1_" gradientUnits="userSpaceOnUse" x1="387.312" y1="816.9297" x2="386.312" y2="815.9397" gradientTransform="matrix(643.3043 0 0 -613.953 -247845.0625 501506.9375)">
		<stop  offset="0" style="stop-color:#FFFFFF;stop-opacity:0.2"/>
		<stop  offset="1" style="stop-color:#FFFFFF;stop-opacity:0"/>
	</linearGradient>
	<path id="Path_197" class="st2" d="M970,324c98-120-200-10-234-116c-25.5-79.6,5-151.3,48.3-210h232.2
		c51.8,55,162.6,101.1,297.5,92c27.6-1.9,45.6,3.2,56,13.8v83.7c-35,95.5-144.1,243.1-218,360.6c-28.6,45.5-59.2,64-88.1,64
		C970,611.9,895,415.8,970,324z"/>
	<circle id="Ellipse_68" class="st3" cx="496.5" cy="567.5" r="13.5"/>
	<circle id="Ellipse_69" class="st3" cx="337.5" cy="58.5" r="15.5"/>
	<circle id="Ellipse_70" class="st3" cx="1155" cy="51" r="8"/>
	<g id="Path_155" transform="matrix(0.259, 0.966, -0.966, 0.259, 73.396, 351.263)" class="st4">
		<path class="st5" d="M23.7,11.7c3.4-5.9,10.8-7.9,16.7-4.6c1.9,1.1,3.5,2.7,4.6,4.6l19.7,34.5c3.4,5.9,1.3,13.4-4.6,16.7
			c-1.9,1.1-3.9,1.6-6.1,1.6H14.6c-6.8,0-12.3-5.5-12.3-12.3c0-2.1,0.6-4.2,1.6-6.1L23.7,11.7z"/>
		<path class="st6" d="M34.4,13.6c-0.7,0-2.6,0.2-3.7,2.1L10.9,50.3c-1.1,1.9-0.4,3.6,0,4.3s1.5,2.1,3.7,2.1h39.5
			c2.2,0,3.3-1.5,3.7-2.1c0.4-0.6,1.1-2.3,0-4.3L38.1,15.7C37,13.8,35.1,13.6,34.4,13.6 M34.4,5.6c4.1,0,8.3,2.1,10.6,6.2l19.7,34.5
			c4.7,8.2-1.2,18.3-10.6,18.3H14.6C5.2,64.6-0.7,54.5,4,46.3l19.7-34.5C26.1,7.6,30.2,5.6,34.4,5.6z"/>
	</g>
	<path id="Path_195" class="st3" d="M1256.5,601c-6.2,0-12.2-2.5-16.6-6.9c-4.4-4.4-6.9-10.4-6.9-16.6c0-6.2,2.5-12.2,6.9-16.6
		c4.4-4.4,10.4-6.9,16.6-6.9c6.2,0,12.2,2.5,16.6,6.9c4.4,4.4,6.9,10.4,6.9,16.6c0,6.2-2.5,12.2-6.9,16.6
		C1268.7,598.5,1262.7,601,1256.5,601z M1256.5,560.7c-9.3,0-16.8,7.5-16.8,16.8c0,9.3,7.5,16.8,16.8,16.8c9.3,0,16.8-7.5,16.8-16.8
		C1273.3,568.2,1265.8,560.7,1256.5,560.7z"/>
</g>
</svg>
