<?xml version="1.0" encoding="utf-8"?>
<!-- Generator: Adobe Illustrator 24.0.2, SVG Export Plug-In . SVG Version: 6.00 Build 0)  -->
<svg version="1.1" id="Capa_1" xmlns="http://www.w3.org/2000/svg" xmlns:xlink="http://www.w3.org/1999/xlink" x="0px" y="0px"
	 viewBox="0 0 477.53 361.85" style="enable-background:new 0 0 477.53 361.85;" xml:space="preserve">
<style type="text/css">
	.st0{opacity:0.24;fill:#FFFFFF;enable-background:new    ;}
	.st1{opacity:0.19;fill:url(#Path_5_1_);}
	.st2{fill:#F07F00;}
	.st3{opacity:0.57;fill:none;stroke:#6442CE;stroke-width:1.238;stroke-miterlimit:10;enable-background:new    ;}
	.st4{fill:url(#Path_9_1_);}
	.st5{fill:url(#Path_11_1_);}
	.st6{fill:url(#Path_13_1_);}
	.st7{fill:url(#Path_17_1_);}
	.st8{opacity:0.63;}
	.st9{fill:url(#Path_18_1_);}
	.st10{fill:url(#Path_19_1_);}
	.st11{fill:url(#Path_20_1_);}
	.st12{fill:none;stroke:#EA8BEF;stroke-width:1.032;stroke-linecap:round;stroke-miterlimit:10;}
	.st13{fill:url(#Path_23_1_);}
	.st14{fill:url(#Path_25_1_);}
	.st15{fill:url(#Path_27_1_);}
	.st16{fill:url(#Path_29_1_);}
	.st17{fill:url(#Path_34_1_);}
	.st18{fill:url(#Path_35_1_);}
	.st19{fill:url(#Path_36_1_);}
	.st20{fill:#FFFFFF;}
	.st21{fill:url(#Union_1_1_);}
	.st22{opacity:0.57;fill:#E3DCE5;enable-background:new    ;}
	.st23{opacity:0.65;fill:#CAC2CE;enable-background:new    ;}
	.st24{fill:#E83867;}
	.st25{fill:url(#Ellipse_2_1_);}
	.st26{opacity:0.61;fill:#E3DCE5;enable-background:new    ;}
	.st27{opacity:0.57;fill:#CAC2CE;enable-background:new    ;}
	.st28{fill:url(#Path_52_1_);}
	.st29{fill:#ED4C76;}
	.st30{fill:url(#Path_54_1_);stroke:#04006A;stroke-width:0.413;stroke-miterlimit:10;}
	.st31{fill:url(#Path_57_1_);}
	.st32{fill:url(#Path_58_1_);}
	.st33{fill:url(#Path_60_1_);}
	.st34{fill:url(#Path_61_1_);}
	.st35{fill:#CED5E0;stroke:#04006A;stroke-width:0.413;stroke-miterlimit:10;}
	.st36{fill:#BA2744;}
	.st37{fill:url(#Path_67_1_);}
	.st38{fill:url(#Path_68_1_);}
	.st39{fill:url(#Path_70_1_);}
	.st40{fill:url(#Path_71_1_);}
	.st41{fill:none;stroke:#04006A;stroke-width:0.413;stroke-miterlimit:10;}
	.st42{fill:url(#Path_74_1_);}
	.st43{fill:url(#Path_75_1_);}
	.st44{fill:#EBEFF7;}
	.st45{fill:url(#Path_77_1_);}
	.st46{fill:url(#Path_78_1_);}
	.st47{fill:#D8DDE5;}
	.st48{fill:#F0668F;}
	.st49{fill:#606060;}
	.st50{fill:#F2F2F7;}
	.st51{fill:url(#Path_90_1_);}
	.st52{fill:#7938E0;}
	.st53{fill:#5F3BB7;}
	.st54{fill:url(#Path_94_1_);}
	.st55{fill:url(#Path_97_1_);}
	.st56{fill:url(#Path_98_1_);}
	.st57{fill:url(#Path_99_1_);}
	.st58{fill:url(#Path_102_1_);}
	.st59{fill:url(#Path_103_1_);}
	.st60{fill:url(#Path_104_1_);}
	.st61{fill:none;}
	.st62{fill:url(#Path_107_1_);}
	.st63{fill:url(#Path_108_1_);}
	.st64{fill:#F28941;}
	.st65{fill:url(#Path_112_1_);}
	.st66{fill:#F26893;}
	.st67{fill:url(#Path_120_1_);}
	.st68{fill:url(#Path_121_1_);}
	.st69{fill:#A02240;}
	.st70{fill:url(#Path_127_1_);}
	.st71{fill:url(#Path_129_1_);}
	.st72{fill:url(#Path_130_1_);}
	.st73{fill:url(#Path_132_1_);}
	.st74{fill:url(#Path_133_1_);}
	.st75{fill:url(#Path_134_1_);}
	.st76{fill:url(#Path_135_1_);}
	.st77{fill:url(#Path_136_1_);}
	.st78{fill:url(#Path_139_1_);}
	.st79{fill:url(#Path_140_1_);}
	.st80{fill:url(#Path_143_1_);}
	.st81{fill:url(#Ellipse_3_1_);}
	.st82{fill:url(#Path_149_1_);}
	.st83{fill:url(#Path_150_1_);}
	.st84{fill:#804ECE;}
</style>
<g id="OBJECTS" transform="translate(-31.469 -92.751)">
	<g id="Group_31" transform="translate(31.469 92.751)">
		<g id="Group_1" transform="translate(22.094)">
			<path id="Path_1" class="st0" d="M42.04,321.46c-13.23,0.76-37.77,4.91-36.7,16.28s15.81,8.06,29.88,3.22s31.96,5.92,34.62-1.6
				S60.33,320.41,42.04,321.46z"/>
			<path id="Path_2" class="st0" d="M102.09,334.01c0,0-8.73,2.36,0.47,8.97s19.11-8.97,29.73-6.37s28.55,4.01,23.6-9.67
				S110.35,325.75,102.09,334.01z"/>
			<path id="Path_3" class="st0" d="M399.07,325.39c-6.03-3.89-33.27,3.78-32.8,12.27s21.71,1.89,28.55,9.91
				S440.84,352.29,399.07,325.39z"/>
			<path id="Path_4" class="st0" d="M167.78,321.85c0,0-27.8,27.61-21.43,36.1s113.97-12.27,134.97,0s47.43-5.66,21.94-36.34
				S167.78,321.85,167.78,321.85z"/>
			<linearGradient id="Path_5_1_" gradientUnits="userSpaceOnUse" x1="1.074071e-04" y1="144.3566" x2="455.4353" y2="144.3566">
				<stop  offset="0" style="stop-color:#F4BA38"/>
				<stop  offset="1" style="stop-color:#FFD349"/>
			</linearGradient>
			<path id="Path_5" class="st1" d="M145.76,248.25c-28.32,20.39-75.52,47.95-125.23-15c-46.89-59.37-9.71-190.32,73.39-213.67
				c81.23-22.83,139.67,96.14,169.73,56.8s65.1-105.24,121.92-62.46s121.2,211.21,5.21,269
				C308.76,323.77,308.58,131.01,145.76,248.25z"/>
		</g>
		<g id="Group_15" transform="translate(92.729 98.37)">
			<g id="Group_6">
				<g id="Group_2" transform="translate(20.134 20.554)">
					<path id="Path_6" class="st2" d="M79.86,63.41l-1.54,32.86c0,0-6.15-32.28-19.22-32.86S43.15,51.69,44.88,42.27
						s-0.38-20.56-14.6-25.94S17.6,0,9.53,0s-17.49,19.22,1.92,32.47s2.88,36.13,25.37,46.5s0.58,36.7,44.39,35.36L79.86,63.41z"/>
					<path id="Path_7" class="st3" d="M9.15,12.11c0,0,3.07,8.26,14.41,14.6s4.42,24.4,17.1,36.7
						c12.68,12.3,22.18,19.97,26.08,39.19"/>
				</g>
				<g id="Group_3" transform="translate(61.827)">
					<path id="Path_8" class="st2" d="M60.13,83.31l-12.25,30.53c0,0,4.8-32.51-7.35-37.35s-11.21-16.31-6.48-24.64
						s6.4-19.54-5.27-29.3S22.17,2.96,14.55,0.3S-8.28,12.7,5.69,31.6s-9.15,35.07,8.67,52.25s-11.52,34.85,30.3,47.98L60.13,83.31z
						"/>
					<linearGradient id="Path_9_1_" gradientUnits="userSpaceOnUse" x1="10.206" y1="63.81" x2="35.453" y2="63.81">
						<stop  offset="0" style="stop-color:#F4BA38"/>
						<stop  offset="1" style="stop-color:#FFD349"/>
					</linearGradient>
					<path id="Path_9" class="st4" d="M10.21,11.61c0,0,0.19,8.81,8.81,18.53s-3.85,24.5,4.09,40.28s14.39,26.15,11.75,45.58"/>
				</g>
				<g id="Group_4" transform="translate(0 75.701)">
					<path id="Path_10" class="st2" d="M95.78,24.19l13.94,29.8c0,0-20.48-25.7-32.31-20.13s-19.57-2.95-22.43-12.08
						s-9.91-18.02-25-16.16S11.15-2.93,4.01,0.82s-6.53,25.15,16.82,27.84S40.2,59.3,64.93,58.01s17.6,32.21,55.75,10.62
						L95.78,24.19z"/>
					<linearGradient id="Path_11_1_" gradientUnits="userSpaceOnUse" x1="9.304" y1="38.349" x2="102.414" y2="38.349">
						<stop  offset="0" style="stop-color:#F4BA38"/>
						<stop  offset="1" style="stop-color:#FFD349"/>
					</linearGradient>
					<path id="Path_11" class="st5" d="M9.3,11.72c0,0,6.57,5.88,19.56,6.21s15.27,19.54,32.23,24.51s28.93,7.34,41.33,22.54"/>
				</g>
				<g id="Group_5" transform="translate(6.371 115.578)">
					<path id="Path_12" class="st2" d="M95.77,24.19l13.94,29.8c0,0-20.48-25.71-32.31-20.13s-19.57-2.95-22.43-12.08
						s-9.91-18.02-25-16.16S11.15-2.93,4.01,0.82s-6.53,25.15,16.82,27.84s19.37,30.63,44.1,29.34s17.6,32.21,55.75,10.62
						L95.77,24.19z"/>
					<linearGradient id="Path_13_1_" gradientUnits="userSpaceOnUse" x1="9.305" y1="38.35" x2="102.415" y2="38.35">
						<stop  offset="0" style="stop-color:#F4BA38"/>
						<stop  offset="1" style="stop-color:#FFD349"/>
					</linearGradient>
					<path id="Path_13" class="st6" d="M9.31,11.72c0,0,6.57,5.88,19.56,6.21s15.28,19.54,32.23,24.52s28.93,7.34,41.33,22.54"/>
				</g>
			</g>
			<g id="Group_8" transform="translate(31.559 117.533)">
				<path id="Path_14" class="st2" d="M55.15,111.4c0,0-49.15-0.65-52.42-9.17S38.11,93.71,55.15,111.4z"/>
				<path id="Path_15" class="st2" d="M55.15,111.4c0,0-11.14-26.21-36.04-34.73s-24.9,14.42-3.28,17.04S55.15,111.4,55.15,111.4z"
					/>
				<path id="Path_16" class="st2" d="M60.39,104.85c0,0-16.38-38.01-27.52-51.76s-19.66-19-26.21-15.07s-5.24,17.04,9.17,28.18
					s28.83,27.52,39.32,45.21L60.39,104.85z"/>
				
					<linearGradient id="Path_17_1_" gradientUnits="userSpaceOnUse" x1="-187.6699" y1="359.5999" x2="-188.0219" y2="359.9778" gradientTransform="matrix(35.1772 0 0 -111.3988 6652.8643 40123.1719)">
					<stop  offset="0" style="stop-color:#9F42DD"/>
					<stop  offset="1" style="stop-color:#E774E0"/>
				</linearGradient>
				<path id="Path_17" class="st7" d="M55.15,111.4c0,0-7.2-38.01-22.9-70.75C17.52,9.93,28.18-5.87,39.83,2.01
					c13.93,9.42,22.11,50.32,20.11,103.94L55.15,111.4z"/>
				<g id="Group_7" transform="translate(9.605 11.466)" class="st8">
					<linearGradient id="Path_18_1_" gradientUnits="userSpaceOnUse" x1="1.966" y1="94.274" x2="40.956" y2="94.274">
						<stop  offset="0" style="stop-color:#F4BA38"/>
						<stop  offset="1" style="stop-color:#FFD349"/>
					</linearGradient>
					<path id="Path_18" class="st9" d="M1.97,90.43c13.35,0.25,26.55,2.85,38.99,7.69"/>
					<linearGradient id="Path_19_1_" gradientUnits="userSpaceOnUse" x1="4.012896e-03" y1="83.79" x2="42.483" y2="83.79">
						<stop  offset="0" style="stop-color:#F4BA38"/>
						<stop  offset="1" style="stop-color:#FFD349"/>
					</linearGradient>
					<path id="Path_19" class="st10" d="M0,69.46c0,0,25.32,4.23,42.48,28.66"/>
					<linearGradient id="Path_20_1_" gradientUnits="userSpaceOnUse" x1="1.966" y1="66.5125" x2="45.216" y2="66.5125">
						<stop  offset="0" style="stop-color:#F4BA38"/>
						<stop  offset="1" style="stop-color:#FFD349"/>
					</linearGradient>
					<path id="Path_20" class="st11" d="M1.97,37.35c0,0,26.21,13.76,43.25,58.32"/>
					<path id="Path_21" class="st12" d="M25.56,0c9.51,23.28,17.41,48.45,23.92,80.27l-0.33,0.33"/>
				</g>
			</g>
			<g id="Group_13" transform="translate(187.116)">
				<g id="Group_9" transform="translate(25.715 20.554)">
					<path id="Path_22" class="st2" d="M1.34,63.41l1.54,32.86c0,0,6.15-32.28,19.22-32.86s15.95-11.72,14.22-21.14
						s0.38-20.56,14.6-25.94S63.6,0,71.67,0s17.49,19.22-1.92,32.47s-2.88,36.13-25.36,46.5S43.81,115.67,0,114.33L1.34,63.41z"/>
					<linearGradient id="Path_23_1_" gradientUnits="userSpaceOnUse" x1="14.467" y1="57.352" x2="72.059" y2="57.352">
						<stop  offset="0" style="stop-color:#F4BA38"/>
						<stop  offset="1" style="stop-color:#FFD349"/>
					</linearGradient>
					<path id="Path_23" class="st13" d="M72.06,12.11c0,0-3.08,8.26-14.41,14.6s-4.42,24.4-17.1,36.7
						c-12.68,12.3-22.18,19.97-26.08,39.19"/>
				</g>
				<g id="Group_10" transform="translate(5.094)">
					<path id="Path_24" class="st2" d="M0,83.31l12.25,30.53c0,0-4.8-32.51,7.35-37.35s11.21-16.31,6.48-24.64
						s-6.39-19.54,5.27-29.3S37.96,2.96,45.58,0.3s22.83,12.4,8.86,31.3s9.15,35.07-8.67,52.25s11.52,34.85-30.3,47.98L0,83.31z"/>
					<linearGradient id="Path_25_1_" gradientUnits="userSpaceOnUse" x1="24.6737" y1="63.81" x2="49.921" y2="63.81">
						<stop  offset="0" style="stop-color:#F4BA38"/>
						<stop  offset="1" style="stop-color:#FFD349"/>
					</linearGradient>
					<path id="Path_25" class="st14" d="M49.92,11.61c0,0-0.19,8.81-8.81,18.53s3.85,24.5-4.09,40.28s-14.39,26.15-11.75,45.58"/>
				</g>
				<g id="Group_11" transform="translate(6.372 75.701)">
					<path id="Path_26" class="st2" d="M24.9,24.19l-13.94,29.8c0,0,20.48-25.7,32.31-20.13s19.57-2.95,22.43-12.08
						s9.91-18.02,25-16.16s18.83-8.55,25.97-4.79s6.53,25.15-16.82,27.84S80.47,59.3,55.74,58.01S38.14,90.22,0,68.63L24.9,24.19z"
						/>
					<linearGradient id="Path_27_1_" gradientUnits="userSpaceOnUse" x1="18.264" y1="38.349" x2="111.374" y2="38.349">
						<stop  offset="0" style="stop-color:#F4BA38"/>
						<stop  offset="1" style="stop-color:#FFD349"/>
					</linearGradient>
					<path id="Path_27" class="st15" d="M111.37,11.72c0,0-6.57,5.88-19.55,6.21S76.54,37.47,59.59,42.44s-28.93,7.34-41.33,22.54"
						/>
				</g>
				<g id="Group_12" transform="translate(0 115.578)">
					<path id="Path_28" class="st2" d="M24.9,24.19l-13.94,29.8c0,0,20.48-25.71,32.31-20.13s19.57-2.95,22.43-12.08
						s9.91-18.02,25-16.16s18.83-8.55,25.97-4.79s6.53,25.15-16.82,27.84S80.47,59.3,55.74,58.01S38.14,90.22,0,68.63L24.9,24.19z"
						/>
					<linearGradient id="Path_29_1_" gradientUnits="userSpaceOnUse" x1="18.265" y1="38.35" x2="111.375" y2="38.35">
						<stop  offset="0" style="stop-color:#F4BA38"/>
						<stop  offset="1" style="stop-color:#FFD349"/>
					</linearGradient>
					<path id="Path_29" class="st16" d="M111.38,11.72c0,0-6.57,5.88-19.55,6.21S76.54,37.47,59.59,42.45s-28.93,7.34-41.33,22.54"
						/>
				</g>
			</g>
			<path id="Path_30" class="st2" d="M227.46,228.93c0,0,49.15-0.65,52.42-9.17S244.5,211.24,227.46,228.93z"/>
			<path id="Path_31" class="st2" d="M227.46,228.93c0,0,11.14-26.21,36.04-34.73s24.9,14.42,3.28,17.04
				S227.46,228.93,227.46,228.93z"/>
			<path id="Path_32" class="st2" d="M222.22,222.38c0,0,16.38-38.01,27.52-51.76c11.14-13.76,19.66-19,26.21-15.07
				s5.24,17.04-9.17,28.18c-14.42,11.14-28.84,27.52-39.32,45.21L222.22,222.38z"/>
			<path id="Path_33" class="st2" d="M227.46,228.93c0,0,7.21-38.01,22.9-70.75c14.73-30.72,4.07-46.52-7.58-38.64
				c-13.93,9.42-22.11,50.31-20.11,103.94L227.46,228.93z"/>
			<g id="Group_14" transform="translate(223.527 128.999)" class="st8">
				<linearGradient id="Path_34_1_" gradientUnits="userSpaceOnUse" x1="8.519" y1="94.274" x2="47.509" y2="94.274">
					<stop  offset="0" style="stop-color:#F4BA38"/>
					<stop  offset="1" style="stop-color:#FFD349"/>
				</linearGradient>
				<path id="Path_34" class="st17" d="M47.51,90.43c-13.35,0.25-26.55,2.85-38.99,7.69"/>
				<linearGradient id="Path_35_1_" gradientUnits="userSpaceOnUse" x1="6.996" y1="83.79" x2="49.475" y2="83.79">
					<stop  offset="0" style="stop-color:#F4BA38"/>
					<stop  offset="1" style="stop-color:#FFD349"/>
				</linearGradient>
				<path id="Path_35" class="st18" d="M49.48,69.46c0,0-25.33,4.23-42.48,28.66"/>
				<linearGradient id="Path_36_1_" gradientUnits="userSpaceOnUse" x1="4.259" y1="66.5125" x2="47.509" y2="66.5125">
					<stop  offset="0" style="stop-color:#F4BA38"/>
					<stop  offset="1" style="stop-color:#FFD349"/>
				</linearGradient>
				<path id="Path_36" class="st19" d="M47.51,37.35c0,0-26.21,13.76-43.25,58.32"/>
				<path id="Path_37" class="st2" d="M23.92,0C14.41,23.28,6.51,48.45,0,80.27l0.33,0.33"/>
			</g>
		</g>
		<g id="Group_22" transform="translate(169.586 28.428)">
			<path id="Rectangle_2" class="st2" d="M15.58,0h129.3c8.6,0,15.58,6.97,15.58,15.58v270.08c0,8.6-6.97,15.58-15.58,15.58H15.58
				c-8.6,0-15.58-6.97-15.58-15.58V15.58C0,6.97,6.97,0,15.58,0z"/>
			<path id="Path_38" class="st20" d="M154.46,21.18v258.76c-0.02,8.28-6.73,14.98-15.01,15.01H21.1
				c-8.28-0.02-14.98-6.73-15.01-15.01V21.18C6.12,12.9,12.82,6.19,21.1,6.17h32c1.22,0,2.32,0.74,2.78,1.87l2.29,5.58
				c0.43,1.05,1.44,1.73,2.57,1.73h44.41c1.1,0,2.1-0.65,2.55-1.66l2.15-4.89c0.7-1.6,2.29-2.63,4.03-2.63h25.57
				C147.73,6.2,154.43,12.9,154.46,21.18z"/>
			<linearGradient id="Union_1_1_" gradientUnits="userSpaceOnUse" x1="6.095" y1="22.7319" x2="154.466" y2="22.7319">
				<stop  offset="0" style="stop-color:#F4BA38"/>
				<stop  offset="1" style="stop-color:#FFD349"/>
			</linearGradient>
			<path id="Union_1" class="st21" d="M6.19,39.5V26.53H6.09v-5.55C6.12,12.7,12.82,6,21.1,5.97h32c1.22,0,2.32,0.74,2.78,1.87
				l2.29,5.58c0.43,1.04,1.44,1.72,2.57,1.72h44.41c1.1,0,2.1-0.65,2.54-1.66l2.15-4.89c0.7-1.6,2.29-2.63,4.03-2.63h25.58
				c8.28,0.02,14.98,6.73,15.01,15.01v4.55h0.01v13.97L6.19,39.5z"/>
			<g id="Group_16" transform="translate(54.283 90.388)">
				<path id="Path_40" class="st22" d="M51.89,25.94c0,14.33-11.62,25.94-25.94,25.94C11.61,51.89,0,40.27,0,25.94S11.61,0,25.94,0
					c14.3-0.03,25.91,11.53,25.94,25.83C51.89,25.87,51.89,25.9,51.89,25.94z"/>
				<path id="Path_41" class="st23" d="M42.69,45.76c-9.6,8.11-23.64,8.18-33.31,0.15c0.4-4.52,1.68-8.92,3.76-12.95
					c1.28-2.38,4.2-3.34,6.65-2.19c3.95,1.83,8.51,1.81,12.44-0.06c2.44-1.17,5.37-0.23,6.66,2.15
					C40.99,36.87,42.28,41.25,42.69,45.76z"/>
				<path id="Path_42" class="st23" d="M36.72,17.56c0,5.95-4.83,10.78-10.78,10.77c-5.95,0-10.78-4.83-10.77-10.78
					c0-5.95,4.83-10.77,10.78-10.77C31.9,6.78,36.72,11.61,36.72,17.56L36.72,17.56z"/>
			</g>
			<g id="Group_20" transform="translate(22.401 210.128)">
				<g id="Group_17" transform="translate(84.417)">
					<circle id="Ellipse_1" class="st24" cx="15.67" cy="15.67" r="15.67"/>
					<path id="Path_43" class="st20" d="M18.53,9.31c0,0,1.4-4.34,2.56-4.5s5.54,2.79,4.81,7.56s-7.33,11.67-12.44,12.09
						s-8.53-2.75-8.06-3.84s2.56-3.76,4.42-2.83s3.45,2.87,5.58,1.2s5.7-4.65,5.93-6.28S18.53,11.02,18.53,9.31z"/>
				</g>
				<g id="Group_18" transform="translate(0 0)">
					<linearGradient id="Ellipse_2_1_" gradientUnits="userSpaceOnUse" x1="-3.956299e-07" y1="15.666" x2="31.332" y2="15.666">
						<stop  offset="0" style="stop-color:#F4BA38"/>
						<stop  offset="1" style="stop-color:#FFD349"/>
					</linearGradient>
					<circle id="Ellipse_2" class="st25" cx="15.67" cy="15.67" r="15.67"/>
					<path id="Path_44" class="st20" d="M18.53,9.31c0,0,1.4-4.34,2.56-4.5s5.54,2.79,4.81,7.56s-7.33,11.67-12.44,12.1
						s-8.53-2.75-8.06-3.84s2.56-3.76,4.42-2.83s3.45,2.87,5.58,1.2s5.7-4.65,5.93-6.28S18.53,11.02,18.53,9.31z"/>
				</g>
				<g id="Group_19" transform="translate(38.516 13.271)">
					<path id="Path_45" class="st26" d="M4.79,2.39c0,1.32-1.07,2.4-2.39,2.4S0,3.72,0,2.4C0,1.07,1.07,0,2.4,0l0,0
						C3.72,0,4.79,1.07,4.79,2.39z"/>
					<path id="Path_46" class="st26" d="M15.37,2.49c0,1.32-1.07,2.4-2.39,2.4s-2.4-1.07-2.4-2.39c0-1.32,1.07-2.4,2.39-2.4l0,0
						C14.3,0.1,15.37,1.17,15.37,2.49z"/>
					<path id="Path_47" class="st26" d="M25.94,2.39c0,1.32-1.07,2.4-2.39,2.4s-2.4-1.07-2.4-2.39c0-1.32,1.07-2.4,2.39-2.4l0,0
						C24.87,0,25.94,1.07,25.94,2.39z"/>
					<path id="Path_48" class="st26" d="M36.52,2.49c0,1.32-1.07,2.4-2.39,2.4s-2.4-1.07-2.4-2.39s1.07-2.4,2.39-2.4c0,0,0,0,0,0
						C35.45,0.1,36.52,1.17,36.52,2.49z"/>
				</g>
			</g>
			<g id="Group_21" transform="translate(36.67 152.454)">
				<path id="Path_49" class="st27" d="M61.77,11.37H21.85c-3.14,0-5.69-2.55-5.69-5.69l0,0c0-3.14,2.55-5.69,5.69-5.69h39.91
					c3.14,0,5.69,2.55,5.69,5.69l0,0C67.45,8.83,64.91,11.37,61.77,11.37z"/>
				<path id="Rectangle_3" class="st26" d="M8.89,28.34h11.95c0.83,0,1.51,0.68,1.51,1.51v0.57c0,0.83-0.68,1.51-1.51,1.51H8.89
					c-0.83,0-1.51-0.68-1.51-1.51v-0.57C7.38,29.01,8.06,28.34,8.89,28.34z"/>
				<path id="Rectangle_4" class="st26" d="M29.45,28.34H41.4c0.83,0,1.51,0.68,1.51,1.51v0.57c0,0.83-0.68,1.51-1.51,1.51H29.45
					c-0.83,0-1.51-0.68-1.51-1.51v-0.57C27.94,29.01,28.62,28.34,29.45,28.34z"/>
				<path id="Rectangle_5" class="st26" d="M49.81,28.34h11.95c0.83,0,1.51,0.68,1.51,1.51v0.57c0,0.83-0.68,1.51-1.51,1.51H49.81
					c-0.83,0-1.51-0.68-1.51-1.51v-0.57C48.3,29.01,48.97,28.34,49.81,28.34z"/>
				<path id="Rectangle_6" class="st26" d="M70.36,28.34h11.95c0.83,0,1.51,0.68,1.51,1.51v0.57c0,0.83-0.68,1.51-1.51,1.51H70.36
					c-0.83,0-1.51-0.68-1.51-1.51v-0.57C68.85,29.01,69.53,28.34,70.36,28.34z"/>
				<path id="Path_50" class="st26" d="M84.32,21.15H2.89c-1.6,0-2.89-1.3-2.89-2.89l0,0c0-1.6,1.3-2.89,2.89-2.89h81.42
					c1.6,0,2.89,1.3,2.89,2.89l0,0l0,0C87.21,19.86,85.92,21.15,84.32,21.15z"/>
			</g>
			<path id="Path_51" class="st26" d="M104.87,278.38H51.99c-2.48,0-4.49-2.01-4.49-4.49l0,0c0-2.48,2.01-4.49,4.49-4.49h52.88
				c2.48,0,4.49,2.01,4.49,4.49l0,0C109.36,276.37,107.35,278.38,104.87,278.38C104.87,278.38,104.87,278.38,104.87,278.38z"/>
		</g>
		<g id="Group_23" transform="translate(360.926 113.265)">
			
				<linearGradient id="Path_52_1_" gradientUnits="userSpaceOnUse" x1="-419.2251" y1="454.3268" x2="-419.8611" y2="455.5718" gradientTransform="matrix(9.9305 0 0 -23.8598 4183.2358 10893.7539)">
				<stop  offset="0" style="stop-color:#E85B7D"/>
				<stop  offset="1" style="stop-color:#FF78AF"/>
			</linearGradient>
			<path id="Path_52" class="st28" d="M18.63,36.58l0.93,5.61h-0.46l-3.36,0.7l-1.16,0.24c-0.62-3.9-1.61-5.36-3.27-9.2
				c-0.63-1.61-1.05-3.3-1.27-5.01c-0.44-2.92-0.48-5.65-0.29-5.75c0.31-0.16,1.72,6.86,1.72,6.86s-1.09-9.51-0.47-9.51
				c0.6,0,1.79,8.19,1.87,8.71c-0.05-0.54-0.91-9.8-0.31-9.95s2.59,9.67,2.65,9.97c-0.03-0.29-0.94-8.47-0.47-8.57
				c0.51-0.1,1.04,3.42,1.56,6.08c0.2,0.95,0.46,1.89,0.78,2.81c1.56-2.18,0.62-5.77,1.09-5.77s1.4,3.27,1.4,5.15
				c0,0.18-0.01,0.41-0.03,0.69l0,0c-0.01,0.09-0.01,0.18-0.02,0.27l0,0c-0.03,0.36-0.08,0.78-0.13,1.23
				C19.11,33.48,18.63,36.58,18.63,36.58z"/>
			<path id="Path_53" class="st29" d="M15.13,38.85c0.03,1.37,0.24,2.73,0.61,4.05l-1.16,0.24c-0.62-3.9-1.61-5.36-3.27-9.2
				c-0.63-1.61-1.05-3.3-1.27-5.01c0.46,1.96,1.23,3.84,2.28,5.56C13.88,36.51,15.13,36.82,15.13,38.85z"/>
			
				<linearGradient id="Path_54_1_" gradientUnits="userSpaceOnUse" x1="2479.9258" y1="-319.6621" x2="2480.9348" y2="-319.6621" gradientTransform="matrix(0.0227 0 0 -0.273 -36.7943 -57.4907)">
				<stop  offset="0" style="stop-color:#F99393"/>
				<stop  offset="1" style="stop-color:#FFB0B4"/>
			</linearGradient>
			<path id="Path_54" class="st30" d="M19.54,29.64c-0.01,0.09-0.01,0.18-0.02,0.27C19.51,29.82,19.52,29.73,19.54,29.64z"/>
			<path id="Path_55" class="st29" d="M19.57,42.2H19.1l-3.36,0.7l3.29-0.77c0,0-1.72-4.83-1.4-6.24c0.26-1.15,1.38-2.89,1.76-4.74
				c-0.27,2.34-0.75,5.44-0.75,5.44L19.57,42.2z"/>
			<path id="Path_56" d="M66.98,207.8l0.47,15.13h-0.7l-0.78-7.48c0,0,0.37,5.69-3.9,8.73c-5.46,3.9-7.32-0.39-5.77-2.81
				c2.49-3.9,3.74-7.48,4.37-13.88C62.59,206.14,65.19,206.27,66.98,207.8z"/>
			
				<linearGradient id="Path_57_1_" gradientUnits="userSpaceOnUse" x1="355.3683" y1="444.67" x2="356.3683" y2="444.67" gradientTransform="matrix(5.8349 0 0 -10.9379 2484.2476 5078.6016)">
				<stop  offset="0" style="stop-color:#E85B7D"/>
				<stop  offset="1" style="stop-color:#FF78AF"/>
			</linearGradient>
			<path id="Path_57" class="st31" d="M61.13,209.36c1.27,0.38,2.61,0.43,3.9,0.16c0,0-0.36,7.79-3.43,9.98
				c-3.27,2.34-2.44-1.06-1.87-2.34C60.97,214.36,61.13,209.36,61.13,209.36z"/>
			
				<linearGradient id="Path_58_1_" gradientUnits="userSpaceOnUse" x1="-270.7251" y1="599.4308" x2="-271.5281" y2="598.7009" gradientTransform="matrix(16.2927 0 0 -80.687 6940.4385 37412.0977)">
				<stop  offset="0" style="stop-color:#E85B7D"/>
				<stop  offset="1" style="stop-color:#FF78AF"/>
			</linearGradient>
			<path id="Path_58" class="st32" d="M50.68,131.55c0,0,2.5,15.59,3.27,22.45s4.68,44.6,6.7,53.8c0.52,0.34,1.1,0.59,1.71,0.73
				c1.55,0.38,3.18,0.11,4.53-0.73c0,0-1.25-33.68-0.62-44.13s-0.78-24.17,0.62-32.12c1.07-6.06-8.91-2.89-13.72-1.03
				C51.67,131.1,50.68,131.55,50.68,131.55z"/>
			<path id="Path_59" d="M44.99,207.88l0.47,15.13h-0.7l-0.78-7.48c0,0,0.37,5.68-3.9,8.73c-5.46,3.9-7.32-0.39-5.77-2.81
				c2.49-3.9,3.74-7.48,4.37-13.88C40.6,206.22,43.2,206.35,44.99,207.88z"/>
			
				<linearGradient id="Path_60_1_" gradientUnits="userSpaceOnUse" x1="362.9093" y1="444.6664" x2="363.9093" y2="444.6664" gradientTransform="matrix(5.8349 0 0 -10.9359 2462.2605 5077.7446)">
				<stop  offset="0" style="stop-color:#E85B7D"/>
				<stop  offset="1" style="stop-color:#FF78AF"/>
			</linearGradient>
			<path id="Path_60" class="st33" d="M39.14,209.44c1.27,0.38,2.61,0.43,3.9,0.15c0,0-0.36,7.79-3.43,9.98
				c-3.27,2.34-2.44-1.06-1.87-2.34C38.98,214.43,39.14,209.44,39.14,209.44z"/>
			
				<linearGradient id="Path_61_1_" gradientUnits="userSpaceOnUse" x1="-421.8919" y1="462.0088" x2="-422.6919" y2="461.2817" gradientTransform="matrix(16.2964 0 0 -80.6913 6920.0391 37414.168)">
				<stop  offset="0" style="stop-color:#E85B7D"/>
				<stop  offset="1" style="stop-color:#FF78AF"/>
			</linearGradient>
			<path id="Path_61" class="st34" d="M44.32,138.02c-0.27,7.79,0.44,17.72-0.04,25.73c-0.62,10.45,0.62,44.13,0.62,44.13
				c-0.95,0.58-2.03,0.89-3.14,0.9c-0.47,0-0.93-0.06-1.39-0.17c-0.61-0.14-1.19-0.39-1.71-0.73c-2.03-9.2-5.93-46.94-6.71-53.8
				s-3.27-22.45-3.27-22.45s1-0.45,2.5-1.03c4.81-1.86,14.79-5.03,13.72,1.03C44.56,133.74,44.37,135.88,44.32,138.02z"/>
			<path id="Path_62" class="st29" d="M41.77,208.78c1.43-4.95,1.46-13.32,0.02-21.33c-1.87-10.45-0.31-16.22,0-25.42
				s-2.18-21.83-2.18-21.83l4.71-2.19c-0.27,7.79,0.44,17.72-0.04,25.73c-0.62,10.45,0.62,44.13,0.62,44.13
				C43.96,208.46,42.88,208.77,41.77,208.78z"/>
			<path id="Path_63" class="st29" d="M63.75,208.78c1.43-4.95,1.46-13.32,0.02-21.33c-1.87-10.45-0.31-16.22,0-25.42
				s-2.18-21.83-2.18-21.83l4.71-2.19c-0.27,7.79,0.44,17.72-0.04,25.73c-0.62,10.45,0.62,44.13,0.62,44.13
				C65.95,208.46,64.86,208.77,63.75,208.78z"/>
			<path id="Path_64" class="st35" d="M0,64.11"/>
			<path id="Path_65" class="st36" d="M35.63,39.24c0,0,1.1-4.94-0.62-16.84C33.29,10.54,34.62,2.82,39.3,4.85c0,0,0-3.59,5.46-4.68
				s11.62,3.04,13.02,10.84s2.34,23.55,4.83,28.22S35.63,39.24,35.63,39.24z"/>
			<path id="Path_66" d="M69.26,117.52c-0.25,10.73-0.81,21.74-0.81,21.74c-21.99,7.8-39.92,0.94-39.92,0.94
				c-1.4-11.07-1.83-27.19,0.91-38.35c1.71-6.96,3.06-11.79,3.06-11.79l35.4-1.25C69.38,95,69.51,106.99,69.26,117.52z"/>
			
				<linearGradient id="Path_67_1_" gradientUnits="userSpaceOnUse" x1="-424.4045" y1="458.5306" x2="-424.8835" y2="455.9656" gradientTransform="matrix(39.9121 0 0 -28.7 17002.9785 13212.7256)">
				<stop  offset="0" style="stop-color:#5629A9"/>
				<stop  offset="1" style="stop-color:#603DB7;stop-opacity:0"/>
			</linearGradient>
			<path id="Path_67" class="st37" d="M69.26,117.52c-5.19-2.69-10.05-5.99-14.45-9.83c-10.88-9.13-21.56-7.03-25.36-5.83
				c1.71-6.96,3.06-11.79,3.06-11.79l35.4-1.25C69.38,95,69.51,106.99,69.26,117.52z"/>
			
				<linearGradient id="Path_68_1_" gradientUnits="userSpaceOnUse" x1="-418.7375" y1="453.2356" x2="-419.6165" y2="452.2316" gradientTransform="matrix(9.5767 0 0 -17.934 4082.3354 8213.291)">
				<stop  offset="0" style="stop-color:#E85B7D"/>
				<stop  offset="1" style="stop-color:#FF78AF"/>
			</linearGradient>
			<path id="Path_68" class="st38" d="M68.69,95.69c0.04,1.28-0.17,2.55-0.62,3.74c-0.49,1.46-1.82,2.7-2.81,4.05
				c-0.33,0.49-0.53,1.05-0.58,1.64c-0.03,0.28-0.04,0.57-0.04,0.85c0,0.95,1.56,4.05,0.78,3.74c-0.52-0.21-1.49-2.31-1.87-3.59
				c-0.23-1.45-0.18-2.93,0.15-4.36c-0.66,1.3-0.93,2.76-0.78,4.21c0.62,2.65,1.56,4.68,1.09,4.68s-1.3-1.68-2.18-3.9
				c-0.28-0.96-0.39-1.96-0.31-2.96c0-0.89,0.05-1.77,0.16-2.65c-0.38,1.43-0.59,2.89-0.62,4.37c0,1.09,0.47,4.37,0.15,4.21
				c-0.4-0.2-1.09-2.65-1.25-3.74c-0.29-2.01-0.2-5.15,0.15-5.77c0.62-1.09,4.99-7.48,4.99-7.48l3.06,1.48l1.2,0.58L68.69,95.69z"/>
			<path id="Path_69" class="st29" d="M68.69,95.68c0.04,1.28-0.17,2.55-0.62,3.74c-0.49,1.46-1.82,2.7-2.81,4.05
				c-0.33,0.49-0.53,1.05-0.58,1.64c0,0-0.51-1.64,1.21-3.83s1.09-4.52,1.4-5.46c0.23-0.58,0.53-1.13,0.88-1.64l1.2,0.58
				L68.69,95.68z"/>
			
				<linearGradient id="Path_70_1_" gradientUnits="userSpaceOnUse" x1="-425.3664" y1="459.634" x2="-425.5094" y2="461.145" gradientTransform="matrix(69.7196 0 0 -59.3945 29711.9902 27424.3691)">
				<stop  offset="0" style="stop-color:#F4BA38"/>
				<stop  offset="1" style="stop-color:#FFD349"/>
			</linearGradient>
			<path id="Path_70" class="st39" d="M82.57,64.03c-0.16-1.72-17-26.98-18.24-27.45s-13.72-1.4-16.53-0.62l-3.47,0.05
				c0,0-10.1,1.2-11.97,3.22c-1.3,1.41-4.94,12.24-7.04,18.71c-0.76,2.35-1.32,4.13-1.49,4.66c-0.03,0.11-0.05,0.17-0.05,0.17
				l-0.68-4.11l-2.9-17.41l-7.33,1.4c0,0,1.87,17.78,2.65,24.48s2.49,13.25,4.52,14.66s7.48,0.47,8.73-1.56
				c1.77-2.97,3.21-6.13,4.27-9.43c0.81-2.32,1.51-4.48,1.93-6.03c0.07-0.27,0.14-0.53,0.19-0.76c0.08-0.35,0.02,0.81,0,2.23
				c0,0.12,0,0.25-0.01,0.38c-0.17,8.47-1.21,16.89-3.11,25.15c9.9,4.23,21.11,4.25,31.02,0.03c0.6-0.26,1.2-0.54,1.8-0.85
				c0.08-0.04,0.16-0.08,0.24-0.12l-0.78,1.4l0,0l5.61,2.81c0,0,6.86-14.19,9.36-19.96S82.73,65.74,82.57,64.03z M71.5,64.97
				c-0.1,0.72-1.69,8.12-2.77,13.1c-0.34,1.56-0.62,2.88-0.8,3.68c-0.11,0.53-0.18,0.84-0.18,0.84s-0.01-0.04-0.02-0.12
				c-0.22-1.43-2.32-14.82-2.32-17.03c0.17-2.62,0.48-5.22,0.94-7.8c0,0,0.04,0.04,0.11,0.13C67.21,58.65,71.64,63.97,71.5,64.97
				L71.5,64.97z"/>
			
				<linearGradient id="Path_71_1_" gradientUnits="userSpaceOnUse" x1="-411.1886" y1="453.6994" x2="-412.7556" y2="455.6774" gradientTransform="matrix(4.5762 0 0 -22.072 1919.3655 10092.373)">
				<stop  offset="0" style="stop-color:#FF911E"/>
				<stop  offset="1" style="stop-color:#FE931E;stop-opacity:0"/>
			</linearGradient>
			<path id="Path_71" class="st40" d="M34.07,57.95c0.21,1.46,0.64,4.79,0.9,6.84c-0.42,1.56-1.12,3.71-1.93,6.03
				c-0.66-4.13-1.85-12.27-1.16-13.65c0.93-1.87,4.37-8.42,4.37-8.42S33.76,55.76,34.07,57.95z"/>
			<path id="Path_72" class="st41" d="M35.16,66.26c0.02,0.15,0.03,0.23,0.03,0.23l-0.04,0.14C35.16,66.51,35.16,66.38,35.16,66.26z
				"/>
			<path id="Path_73" class="st41" d="M59.33,64.03"/>
			
				<linearGradient id="Path_74_1_" gradientUnits="userSpaceOnUse" x1="-415.8894" y1="458.18" x2="-418.0655" y2="459.806" gradientTransform="matrix(6.8746 0 0 -40.855 2929.8242 18824.3027)">
				<stop  offset="0" style="stop-color:#FF911E"/>
				<stop  offset="1" style="stop-color:#FE931E;stop-opacity:0"/>
			</linearGradient>
			<path id="Path_74" class="st42" d="M65.42,65.43c0,2.21,2.1,15.6,2.32,17.03c-0.81,2.88-1.76,5.72-2.87,8.51
				c-0.6,0.3-2.9,1.18-3.5,1.44c0.34-4.52,2.34-9.2,0.78-18.4c-2.7-15.92-0.31-22.46-0.31-22.46l4.63,6.21
				c-0.07-0.08-0.11-0.13-0.11-0.13C65.9,60.22,65.59,62.82,65.42,65.43z"/>
			
				<linearGradient id="Path_75_1_" gradientUnits="userSpaceOnUse" x1="-347.5992" y1="406.1458" x2="-346.5992" y2="406.1458" gradientTransform="matrix(0.832 0 0 -3.684 357.1387 1576.1464)">
				<stop  offset="0" style="stop-color:#FF911E"/>
				<stop  offset="1" style="stop-color:#FE931E;stop-opacity:0"/>
			</linearGradient>
			<path id="Path_75" class="st43" d="M68.77,78.56c-0.28,1.13-0.55,2.19-0.83,3.19c0.17-0.8,0.46-2.13,0.8-3.68L68.77,78.56z"/>
			<path id="Path_76" class="st44" d="M54.03,37.05c0,0-1.02,4.14-2.3,9.12c-1.95,7.62-4.5,17.21-4.88,16.93
				c-0.21-0.16-0.61-3.3-1.05-7.34c-0.82-7.7-1.76-18.7-1.76-18.7L54.03,37.05z"/>
			
				<linearGradient id="Path_77_1_" gradientUnits="userSpaceOnUse" x1="-396.9121" y1="450.9133" x2="-393.5201" y2="450.9133" gradientTransform="matrix(2.13 0 0 -16.064 867.1874 7309.4468)">
				<stop  offset="0" style="stop-color:#FF911E"/>
				<stop  offset="1" style="stop-color:#FE931E;stop-opacity:0"/>
			</linearGradient>
			<path id="Path_77" class="st45" d="M25.96,74.01l-2.13-11.4c0.17-0.54,0.73-2.31,1.49-4.66L25.96,74.01z"/>
			
				<linearGradient id="Path_78_1_" gradientUnits="userSpaceOnUse" x1="-421.9987" y1="456.5406" x2="-422.6677" y2="457.6035" gradientTransform="matrix(17.4582 0 0 -31.4644 7424.2944 14416.3662)">
				<stop  offset="0" style="stop-color:#E85B7D"/>
				<stop  offset="1" style="stop-color:#FF78AF"/>
			</linearGradient>
			<path id="Path_78" class="st46" d="M54.03,37.05c0,0-4.37,4.83-9.98,0c0.38-1.25,0.6-2.55,0.64-3.87
				c0.04-0.74,0.03-1.48-0.02-2.22c-0.38,0.25-0.81,0.42-1.26,0.49c-0.44,0.07-0.89,0.04-1.32-0.1c-1.4-0.47-4.83-5.46-5.15-16.06
				c0,0,2.32-1.19,3.88-5.21c0.29-0.77,0.54-1.55,0.72-2.35c1.15,3.39,3.71,6.12,7.02,7.49l0.03,0.15c0.15,0.82,0.94,4.74,2.47,6.55
				c0,0,0.15-6.55,2.18-6.08s0.83,5.72,0.62,6.24c-0.31,0.78-1.09,0.31-1.09,0.31S52.63,32.69,54.03,37.05z"/>
			<path id="Path_79" class="st29" d="M48.73,28.32c-0.66,2.09-2.11,3.83-4.04,4.87c0.04-0.74,0.03-1.48-0.02-2.22
				c-0.38,0.25-0.81,0.42-1.26,0.49l0,0C45.36,30.74,47.16,29.67,48.73,28.32z"/>
			<path id="Path_80" class="st29" d="M48.6,15.38c-3.6-0.22-6.43-3.45-7.77-5.29c0.29-0.77,0.54-1.55,0.72-2.35
				c1.15,3.39,3.71,6.12,7.02,7.49L48.6,15.38z"/>
			<path id="Path_81" class="st47" d="M51.74,46.17c-1.95,7.62-4.5,17.21-4.88,16.93c-0.21-0.16-0.61-3.3-1.05-7.34L51.74,46.17z"/>
		</g>
		<g id="Group_24" transform="translate(32.634 120.2)">
			<path id="Path_82" class="st44" d="M23.77,37.31l6.82-6.46l13.72,6.46l-2.4,65.4h-11.4L23.77,37.31z"/>
			<path id="Path_83" d="M15.22,210.85c-0.86,0.44-1.8,0.72-2.76,0.83L1.32,209c3.65-1.1,6.55-2.95,7.45-4.3
				c0.54-1.32,0.83-2.72,0.87-4.14c0.14-1.55,0.18-2.91,0.18-2.91l6-0.9c0,0,0.04,1.63,0.04,3.79
				C15.89,204.58,15.81,210.46,15.22,210.85z"/>
			<path id="Path_84" class="st48" d="M15.87,200.54c-2.06,0.29-4.16,0.29-6.22,0.02c0.14-1.55,0.18-2.91,0.18-2.91l6-0.9
				C15.83,196.75,15.86,198.39,15.87,200.54z"/>
			<path id="Path_85" d="M54.97,211.15c0,0-8.1,2.7-9.9,2.35s-0.6-4.59-0.3-6.99c0.11-1.88,0.07-3.76-0.1-5.63
				c-0.15-2.2-0.35-4.11-0.35-4.11h6.15c0,0,0.09,1.92,0.22,3.9c0.11,1.66,0.24,3.36,0.38,4.05
				C51.37,206.2,54.97,211.15,54.97,211.15z"/>
			<path id="Path_86" class="st48" d="M50.69,200.66c-1.61,0.12-3.69,0.18-6.02,0.21c-0.15-2.2-0.35-4.11-0.35-4.11h6.15
				C50.47,196.75,50.56,198.67,50.69,200.66z"/>
			<path id="Path_87" class="st49" d="M52.42,97.46v52.8c0,4.2-0.9,48-0.9,48h-7.5c0,0-4.5-39.45-4.65-46.35s-3.15-37.35-3.15-37.35
				l-0.07,0.22l-9.68,32.78c-1.39,5.28-2.44,10.64-3.15,16.05c-1.35,9.75-7.05,34.65-7.05,34.65h-7.5l3.3-48.6l5.25-52.8
				c9.68,1.24,19.46,1.59,29.2,1.05C48.49,97.79,50.46,97.65,52.42,97.46z"/>
			<path id="Path_88" class="st50" d="M12.52,211.75c0,0-3.71-4.95-8.76-3.6s-3.86,3.15-2.97,3.6
				C4.64,212.78,8.68,212.78,12.52,211.75z"/>
			<path id="Path_89" class="st50" d="M54.67,213.1c-1.21,0.24-10.31,1.29-10.5,0c-0.17-1.77,1.09-3.36,2.85-3.6
				c2.55-0.45,7.65,1.2,8.4,1.95S55.42,212.95,54.67,213.1z"/>
			
				<linearGradient id="Path_90_1_" gradientUnits="userSpaceOnUse" x1="-87.4438" y1="455.1769" x2="-86.4438" y2="455.1769" gradientTransform="matrix(5.898 0 0 -100.795 562.2676 46027.4023)">
				<stop  offset="0" style="stop-color:#6D5BB8"/>
				<stop  offset="1" style="stop-color:#604AB7;stop-opacity:0"/>
			</linearGradient>
			<path id="Path_90" class="st51" d="M52.42,97.46v52.79c0,4.2-0.9,48-0.9,48h-1.97c0.58-8.19,0.54-16.41-0.12-24.6
				c-1.2-13.8-1.95-18.9,0-35.25c1.56-13.06-1.57-32.99-2.9-40.5C48.49,97.8,50.46,97.65,52.42,97.46z"/>
			<path id="Path_91" d="M36.16,114.78l-9.68,32.78c-1.39,5.28-2.44,10.64-3.15,16.05c-1.35,9.75-7.05,34.65-7.05,34.65h-2.37
				c2.24-8.07,3.88-16.29,4.92-24.6c1.48-10.33-0.52-11.04,2.55-26.1c1.5-7.35,6.6-14.25,8.1-22.95c1.06-6.7,2.76-13.28,5.1-19.65
				L36.16,114.78z"/>
			<path id="Path_92" class="st52" d="M65.32,117.41c0,0,1.05,9.75,0.75,10.35s-8.83,3.65-9.9,0.75c-1.5-4.05,0-26.25,0-26.25
				s-0.15-7.65,1.5-7.35S65.32,117.41,65.32,117.41z"/>
			<path id="Path_93" class="st53" d="M57.37,109.31c0,0-0.9-10.5,0-11.85s2.1-1.2,3.9,6.9s2.1,14.4,3.3,15
				c1,0.41,2.07,0.67,3.15,0.75c0,0-7.2-28.65-9.15-28.65s-4.35,2.25-3.9,17.25C54.67,108.71,55.12,114.25,57.37,109.31z"/>
			
				<linearGradient id="Path_94_1_" gradientUnits="userSpaceOnUse" x1="-92.3144" y1="444.7686" x2="-92.2774" y2="444.1277" gradientTransform="matrix(11.399 0 0 -17.298 1084.6521 7725.0835)">
				<stop  offset="0" style="stop-color:#E85B7D"/>
				<stop  offset="1" style="stop-color:#FF78AF"/>
			</linearGradient>
			<path id="Path_94" class="st54" d="M37.72,20.06l-0.18,5.24l-0.11,3.47l-0.16,4.79c-5.85,8.55-10.05,0-10.05,0l-0.59-5.5
				l-0.19-1.8l-0.12-1.11L37.72,20.06z"/>
			<path id="Path_95" class="st29" d="M37.42,25.12l0.01,3.47c-1.42,1.93-3.3,4-4.82,4.06c-2,0.07-4.61-2.72-6-4.39l-0.25-1.79
				C29.02,24.72,34.42,24.87,37.42,25.12z"/>
			<path id="Path_96" class="st36" d="M21.68,15.7c0,0-1.4-5.19-0.84-7.72s2.95-1.4,2.95-1.4c-0.72-1.43-0.5-3.15,0.56-4.35
				c1.82-2.11,9.26-3.09,13.61-1.26s1.68,5.76,1.68,5.76s5.47-1.4,1.68,8.28l-8.42,3.5l-11.23-2.66V15.7z"/>
			
				<linearGradient id="Path_97_1_" gradientUnits="userSpaceOnUse" x1="-82.3349" y1="425.7459" x2="-83.9659" y2="425.8249" gradientTransform="matrix(4.3772 0 0 -6.7889 386.967 2908.2083)">
				<stop  offset="0" style="stop-color:#E85B7D"/>
				<stop  offset="1" style="stop-color:#FF78AF"/>
			</linearGradient>
			<path id="Path_97" class="st55" d="M24.2,15.56c0,0-2.11-2.25-2.81-0.84s0.84,6.6,4.21,6.32L24.2,15.56z"/>
			
				<linearGradient id="Path_98_1_" gradientUnits="userSpaceOnUse" x1="-83.5559" y1="425.7779" x2="-82.5559" y2="425.7779" gradientTransform="matrix(4.3772 0 0 -6.7889 403.2505 2908.2083)">
				<stop  offset="0" style="stop-color:#E85B7D"/>
				<stop  offset="1" style="stop-color:#FF78AF"/>
			</linearGradient>
			<path id="Path_98" class="st56" d="M38.91,15.56c0,0,2.11-2.25,2.81-0.84s-0.84,6.6-4.21,6.32L38.91,15.56z"/>
			
				<linearGradient id="Path_99_1_" gradientUnits="userSpaceOnUse" x1="-93.9581" y1="448.3192" x2="-94.9031" y2="449.1202" gradientTransform="matrix(15.55 0 0 -23.4673 1491.8032 10536.7617)">
				<stop  offset="0" style="stop-color:#E85B7D"/>
				<stop  offset="1" style="stop-color:#FF78AF"/>
			</linearGradient>
			<path id="Path_99" class="st57" d="M39.59,15.48L39.59,15.48c-0.04,0.32-1.14,9.24-1.65,10.87c-0.97,1.93-2.6,3.45-4.58,4.31
				c-0.42,0.18-0.87,0.26-1.33,0.25c-1.72-0.23-3.3-1.08-4.43-2.4c-0.63-0.66-1.18-1.4-1.61-2.2c-1.01-1.89-1.94-11.79-1.94-11.79
				c1.06-1.44,1.69-3.14,1.82-4.92c0.05-0.4,0.09-0.83,0.11-1.29c0,0,7.75-2.47,12.6,0.92c0,0,0,0.02-0.01,0.06
				C38.41,11.4,38.77,13.53,39.59,15.48z"/>
			<path id="Path_100" class="st29" d="M39.36,15c-0.02,0.32-0.57,9.29-0.98,10.94c-0.85,1.99-2.38,3.61-4.31,4.58
				C37.78,28.02,39.32,15.32,39.36,15z"/>
			<path id="Path_101" class="st29" d="M37.95,8.82c0,0,0,0.02,0,0.06c-5.2-1.21-10.77,0.44-12.66,1.1c0.03-0.41,0.04-0.84,0.03-1.3
				C25.32,8.68,32.9,5.73,37.95,8.82z"/>
			
				<linearGradient id="Path_102_1_" gradientUnits="userSpaceOnUse" x1="-95.9942" y1="453.5911" x2="-96.1382" y2="454.5211" gradientTransform="matrix(31.195 0 0 -65.7056 3012.6165 29899.5605)">
				<stop  offset="0" style="stop-color:#F4BA38"/>
				<stop  offset="1" style="stop-color:#FFD349"/>
			</linearGradient>
			<path id="Path_102" class="st58" d="M32.92,99.26c-2.5,0.04-5-0.11-7.48-0.45c-2.68-0.33-5.3-0.98-7.82-1.95l-1.5-38.25
				c0,0-2.39,7.69-3.1,10.96c-0.12,0.44-0.18,0.89-0.19,1.34c0.15,1.2,1.95,9.6,1.95,9.6l-8.7,3.3c0,0-4.35-8.55-4.35-11.4
				s6.3-30.3,7.65-32.4s17.85-6.45,17.85-6.45L32.92,99.26z"/>
			
				<linearGradient id="Path_103_1_" gradientUnits="userSpaceOnUse" x1="-95.9911" y1="453.5134" x2="-95.1101" y2="454.9284" gradientTransform="matrix(25.049 0 0 -66.4677 2442.2556 30248.4727)">
				<stop  offset="0" style="stop-color:#F4BA38"/>
				<stop  offset="1" style="stop-color:#FFD349"/>
			</linearGradient>
			<path id="Path_103" class="st59" d="M52.38,71.95c0.1-0.69,0.11-1.4,0.04-2.09c-0.3-1.5-2.4-7.95-2.4-7.95
				c0.3,3.6,2.4,38.1,2.4,38.1c-1.99,0.05-4.29-0.03-6.42-0.17c-3.66-0.23-6.78-0.58-6.78-0.58l-1.65-65.7
				c6.19,0.71,12.22,2.43,17.85,5.1c0.9,0.6,7.2,30.15,7.2,31.35s-2.55,9.9-2.55,9.9l-8.47-2.38l-0.07-0.02c0,0,0.02-0.09,0.05-0.25
				c0.15-0.78,0.6-3.24,0.8-5.18l0,0v-0.03l0.01-0.08L52.38,71.95z"/>
			
				<linearGradient id="Path_104_1_" gradientUnits="userSpaceOnUse" x1="-94.3628" y1="452.5541" x2="-91.8658" y2="454.0101" gradientTransform="matrix(14.416 0 0 -51.592 1366.931 23452.0273)">
				<stop  offset="0" style="stop-color:#FF911E"/>
				<stop  offset="1" style="stop-color:#FE931E;stop-opacity:0"/>
			</linearGradient>
			<path id="Path_104" class="st60" d="M25.44,98.8c-2.68-0.33-5.3-0.98-7.82-1.95l-1.5-38.25c0,0-2.39,7.69-3.1,10.96l-2,5.84
				l6.3-28.2c1.87,7.65,2.47,15.55,1.8,23.4C18.31,81.11,25.28,89.15,25.44,98.8z"/>
			<path id="Path_105" class="st61" d="M51.52,77.51c0,0,0.02-0.09,0.05-0.25c0.01,0.09,0.02,0.18,0.03,0.27L51.52,77.51z"/>
			<path id="Path_106" class="st61" d="M52.38,71.97c0,0.03,0,0.05-0.01,0.08L52.38,71.97z"/>
			
				<linearGradient id="Path_107_1_" gradientUnits="userSpaceOnUse" x1="-86.72" y1="452.8836" x2="-94.23" y2="454.6176" gradientTransform="matrix(6.87 0 0 -54.7647 657.6158 24902.5547)">
				<stop  offset="0" style="stop-color:#FF911E"/>
				<stop  offset="1" style="stop-color:#FE931E;stop-opacity:0"/>
			</linearGradient>
			<path id="Path_107" class="st62" d="M50.02,61.91c0.3,3.6,2.4,38.1,2.4,38.1c-1.99,0.05-4.29-0.03-6.42-0.17
				c3.74-7.41,2.53-22.6,1.32-29.98c-1.35-8.25,0-24.6,0-24.6s5.55,20.85,5.55,21.6c0,0.67-0.41,4.36-0.49,5.09
				c0.1-0.69,0.11-1.4,0.04-2.09C52.12,68.36,50.02,61.91,50.02,61.91z"/>
			
				<linearGradient id="Path_108_1_" gradientUnits="userSpaceOnUse" x1="-94.4817" y1="449.8382" x2="-93.7527" y2="448.7852" gradientTransform="matrix(16.499 0 0 -26.548 1567.4364 12020.1729)">
				<stop  offset="0" style="stop-color:#E85B7D"/>
				<stop  offset="1" style="stop-color:#FF78AF"/>
			</linearGradient>
			<path id="Path_108" class="st63" d="M22.57,103.31c-0.2,0.61-0.53,1.16-0.96,1.64c-0.83,0.89-1.83,1.61-2.94,2.11
				c-4.2-6.6-12.6-23.25-12.6-23.25l5.94-2.25l2.76-1.05c0.37,0.84,1.73,5.92,3.45,11.4S22.57,103.31,22.57,103.31z"/>
			<path id="Path_109" class="st29" d="M22.57,103.31c-0.2,0.61-0.53,1.16-0.96,1.64c-1.2-5.41-3.87-7.02-5.34-13.18
				c-0.89-3.6-2.32-7.04-4.26-10.2l2.76-1.05c0.37,0.84,1.73,5.92,3.45,11.4S22.57,103.31,22.57,103.31z"/>
			<path id="Path_110" class="st64" d="M16.12,83.21c0,0-9.15,3.3-9.6,3.6s-3-4.8-3-4.8l11.85-4.2
				C15.37,77.81,16.78,82.22,16.12,83.21z"/>
			<path id="Path_111" class="st52" d="M44.32,34.31c0,0-1.81,44.27,10.42,55.28l-1.87,4.11c0,0-14.24-14.26-12-59.7
				C40.87,34.01,42.07,33.26,44.32,34.31z"/>
			
				<linearGradient id="Path_112_1_" gradientUnits="userSpaceOnUse" x1="-91.6605" y1="452.4575" x2="-92.3245" y2="451.5225" gradientTransform="matrix(10.6582 0 0 -40.504 1034.6755 18405.9531)">
				<stop  offset="0" style="stop-color:#E85B7D"/>
				<stop  offset="1" style="stop-color:#FF78AF"/>
			</linearGradient>
			<path id="Path_112" class="st65" d="M58.12,105.11c0.3,0.9,0.6,6-0.75,6.6s-4.5,0.3-4.5,0.3s5.1,5.55,4.35,5.7s-5.4-3.9-5.7-4.8
				s-2.25-8.4-2.1-12.3s2.1-23.4,2.1-23.4l5.27,1.66l3.28,1.04c-0.97,3.02-6.15,21-6.15,21c0.01,0.02,0.02,0.05,0.03,0.07
				c1.05,2.45,2.67,8.33,2.67,8.33S57.82,104.21,58.12,105.11z"/>
			<path id="Path_113" class="st29" d="M53.92,100.91c0.01,0.02,0.02,0.05,0.03,0.07l-1.53,1.73c1.8-4.65,0.9-9.6,3-15.3
				c1.02-2.73,1.48-5.63,1.37-8.54l3.28,1.04C59.1,82.93,53.92,100.91,53.92,100.91z"/>
			<path id="Path_114" class="st64" d="M50.32,76.16l11.85,3.3c-0.6,1.59-1.3,3.14-2.1,4.65c-3.26-0.62-6.46-1.47-9.6-2.55
				C50.32,81.26,50.32,76.16,50.32,76.16z"/>
		</g>
		<g id="Group_25" transform="translate(103.069 122.462)">
			<path id="Path_115" d="M25.33,215.46c1.83,1.22,15.71-6.1,16.78-6.86c0.96-0.69,0.19-6.22,0.03-7.29
				c-0.02-0.11-0.03-0.18-0.03-0.18l0.04-3.43l-7.88-1.53l0.21,5.04l0.02,0.37c0.16,0.84,0,1.72-0.46,2.44
				C33.26,205.09,23.5,214.24,25.33,215.46z"/>
			<path id="Path_116" class="st66" d="M34.26,196.17l0.21,5.04c2.44,1.05,5.2,1.09,7.67,0.1c-0.02-0.11-0.03-0.18-0.03-0.18
				l0.04-3.43L34.26,196.17z"/>
			<path id="Path_117" d="M57.82,208.14c0.76,0.92,3.51,0.61,5.64,0.76s16.78,2.14,17.54,0c0.74-2.07-14.8-7.27-15.81-7.61
				l-0.05-0.02l0.05-3.82l-7.49-2.21l0.11,6.18l-0.01,0.08C57.72,202.19,57.11,207.29,57.82,208.14z"/>
			<path id="Path_118" class="st66" d="M57.82,201.43l-0.01,0.08c2.44,0.57,4.98,0.5,7.38-0.21l-0.05-0.02l0.05-3.82l-7.49-2.21
				L57.82,201.43z"/>
			<path id="Path_119" d="M29.3,132.48l1.83,17.54c0,0,1.22,27.61,3.36,48.36c0.68,0.32,1.4,0.56,2.14,0.72
				c1.85,0.5,3.83,0.24,5.49-0.72c0,0,2.59-48.2,3.05-52.78c0.38-3.78,1.07-22.24,1.3-28.55c0.05-1.33,0.07-2.12,0.07-2.12
				s7.63,30.96,8.24,33.41s1.98,37.07,3.2,50.03c0.51,0.17,1.04,0.29,1.57,0.38c1.87,0.31,3.79,0.19,5.6-0.38
				c0,0,3.05-51.25,3.36-54.46s-2.75-21.36-2.75-21.36L53.4,91.91l-0.71,0.06l-17.9,1.47L29.3,132.48z"/>
			
				<linearGradient id="Path_120_1_" gradientUnits="userSpaceOnUse" x1="-102.0315" y1="568.8543" x2="-102.8276" y2="567.4113" gradientTransform="matrix(23.395 0 0 -107.132 3918.6694 48680.6602)">
				<stop  offset="0" style="stop-color:#6D5BB8"/>
				<stop  offset="1" style="stop-color:#604AB7;stop-opacity:0"/>
			</linearGradient>
			<path id="Path_120" class="st67" d="M29.3,132.48l1.83,17.54c0,0,1.22,27.61,3.36,48.36c0.68,0.32,1.4,0.56,2.14,0.72l0,0
				c-0.99-2.87-0.54-16.2-0.08-24.44s0.15-10.37-1.07-22.27s4.58-23.19,5.8-36.92s9.15-13.88,9.15-13.88l2.27-9.63l-17.9,1.47
				L29.3,132.48z"/>
			
				<linearGradient id="Path_121_1_" gradientUnits="userSpaceOnUse" x1="5.9807" y1="671.7228" x2="4.9297" y2="670.3679" gradientTransform="matrix(14.0837 0 0 -90.756 2361.5706 41236.8125)">
				<stop  offset="0" style="stop-color:#6D5BB8"/>
				<stop  offset="1" style="stop-color:#604AB7;stop-opacity:0"/>
			</linearGradient>
			<path id="Path_121" class="st68" d="M46.46,108v9.06c0.05-1.33,0.07-2.12,0.07-2.12s7.63,30.97,8.24,33.41s1.98,37.07,3.2,50.03
				c0.51,0.17,1.04,0.29,1.57,0.38c0.41-4.88-0.25-14.07-0.73-25.01c-0.45-8.83,0.11-17.69,1.68-26.39
				c0.61-3.81-4.12-8.24-7.02-17.7S46.46,108,46.46,108z"/>
			<path id="Path_122" class="st44" d="M34.79,38.97l1.74,28.13l1.76,28.46c9.46,3.05,13.58,0,13.58,0l0.39-13.41l1.13-38.6
				l-6.25-6.41c0,0-4.12,8.69-5.49,8.39S34.79,38.97,34.79,38.97z"/>
			<path id="Path_123" class="st47" d="M36.53,67.1l1.76,28.46c9.46,3.05,13.58,0,13.58,0l0.39-13.41
				c-0.78-0.42-1.65-0.63-2.53-0.62c-9.15-0.15-12.36-25.47-12.36-25.47L36.53,67.1z"/>
			<path id="Path_124" class="st35" d="M79.56,64.83"/>
			<path id="Path_125" class="st69" d="M33.42,3.74c-0.35-1.91-1.89-3.39-3.81-3.66c-3.51-0.76-9.76,4.12-8.7,12.51
				s7.63,5.03,7.63,5.03L33.42,3.74z"/>
			<path id="Path_126" class="st36" d="M49.03,20.69l1.17,11.88c0,0,2.23-20.46,1.07-24.1c-1.22-3.81-4.27-6.1-6.87-2.9
				c0,0-0.61-3.66-5.95-3.97S27.31,6.48,27.01,16.55c-0.19,5.9,2.59,11.51,7.42,14.91L49.03,20.69z"/>
			
				<linearGradient id="Path_127_1_" gradientUnits="userSpaceOnUse" x1="-133.9012" y1="378.9047" x2="-134.4382" y2="380.0477" gradientTransform="matrix(34.932 0 0 -33.2318 5915.624 14962.1152)">
				<stop  offset="0" style="stop-color:#E85B7D"/>
				<stop  offset="1" style="stop-color:#FF78AF"/>
			</linearGradient>
			<path id="Path_127" class="st70" d="M75.71,65.97l4.6,2.89l3.38,2.12c0,0,8.76-26.97,9.98-27.58s9.61-1.07,10.53-1.52
				c0.23-0.12,0.81-0.43,1.52-0.84l0,0c2.08-1.19,5.34-3.16,4.88-3.27c-0.61-0.15-3.2,1.52-5.49,1.68s-10.83-1.37-12.81-0.46
				s-4.27,5.49-7.02,10.53S75.71,65.97,75.71,65.97z"/>
			<path id="Path_128" class="st29" d="M80.31,68.86l3.38,2.12c0,0,8.76-26.97,9.98-27.58s9.61-1.07,10.53-1.52
				c0.23-0.12,0.81-0.43,1.52-0.84c-3.19,0.45-6.39,0.73-9.61,0.84c-3.51,0-4.73,0.61-5.8,5.03s-6.87,19.53-9.61,21.51
				C80.53,68.53,80.4,68.68,80.31,68.86z"/>
			
				<linearGradient id="Path_129_1_" gradientUnits="userSpaceOnUse" x1="1353.9763" y1="422.4259" x2="1354.9763" y2="422.4259" gradientTransform="matrix(4.192 0 0 -6.562 713.3725 2841.2048)">
				<stop  offset="0" style="stop-color:#891531"/>
				<stop  offset="1" style="stop-color:#891531;stop-opacity:0"/>
			</linearGradient>
			<path id="Path_129" class="st71" d="M70.63,72.54l4.19-5.45l-1.9,2.4c0,0-0.42-1.36-1.11-3.51L70.63,72.54z"/>
			
				<linearGradient id="Path_130_1_" gradientUnits="userSpaceOnUse" x1="-38.8373" y1="281.0459" x2="-39.3773" y2="281.7669" gradientTransform="matrix(18.2441 0 0 -37.6791 3049.5376 16959.6484)">
				<stop  offset="0" style="stop-color:#E85B7D"/>
				<stop  offset="1" style="stop-color:#FF78AF"/>
			</linearGradient>
			<path id="Path_130" class="st72" d="M32.35,23.57c0.61,0.46,1.52-0.61,1.52-0.61c0.33,3.65,1.6,10.79,1.3,14.26
				c-0.12,1.32-1.98,1.83-1.98,1.83s6.33,8.16,8.62,8.01s6.43-9.92,6.43-9.92c-1.14,0.08-2.28-0.02-3.38-0.3
				c-0.45-0.18-0.82-0.52-1.03-0.96c-0.47-0.95-0.79-1.97-0.93-3.02c-0.01-0.09-0.02-0.14-0.02-0.14c0.1,0.12,0.23,0.22,0.38,0.29
				h0.01c0.28,0.13,0.58,0.19,0.89,0.18h0.01c0.32,0,0.63-0.05,0.94-0.13l0,0c0.33-0.09,0.66-0.2,0.97-0.34
				c0.07-0.03,0.14-0.07,0.2-0.12c2.28-1.75,3-15.28,3-15.28c-0.37-0.23-0.73-0.48-1.08-0.75c-2.33-1.92-4.16-4.39-5.32-7.18
				c-0.26,0.91-0.6,1.79-1,2.64c-1.69,3.42-4.11,6.42-7.08,8.8c0,0-1.83-4.88-3.2-3.51S31.74,23.11,32.35,23.57z"/>
			<path id="Path_131" class="st36" d="M34.79,20.82c0,0,0.46,9.3,2.29,13.12c0,0-0.91-12.36,0.76-18L34.79,20.82z"/>
			
				<linearGradient id="Path_132_1_" gradientUnits="userSpaceOnUse" x1="-167.0562" y1="452.4546" x2="-166.8161" y2="453.3106" gradientTransform="matrix(38.36 0 0 -98.3764 6465.4917 44637.082)">
				<stop  offset="0" style="stop-color:#F4BA38"/>
				<stop  offset="1" style="stop-color:#FFD349"/>
			</linearGradient>
			<path id="Path_132" class="st73" d="M49.13,74.21c-0.87,17.07,1.07,45.76,3.05,55.22s19.52,4.58,19.52,4.58s-2.9-14.8-5.49-24.71
				c-2.06-7.89-4.8-30.84-5.84-39.89c-0.26-2.33-0.42-3.73-0.42-3.73s6.56,20.29,11.75,20.75c0.83,0.02,1.63-0.25,2.28-0.76
				c4.85-3.31,10.38-16.17,10.38-16.17l-7.93-4.42l-1.57,1.97l-0.04,0.05l-1.9,2.4c0,0-0.42-1.36-1.11-3.51
				c-2.26-7.02-7.45-22.43-10.48-25.93C57.37,35.47,46,37.22,46,37.22S49.89,59.26,49.13,74.21z"/>
			
				<linearGradient id="Path_133_1_" gradientUnits="userSpaceOnUse" x1="105.0155" y1="246.4981" x2="103.6825" y2="247.4971" gradientTransform="matrix(15.093 0 0 -32.0338 2544.6509 14433.002)">
				<stop  offset="0" style="stop-color:#FF911E"/>
				<stop  offset="1" style="stop-color:#FE931E;stop-opacity:0"/>
			</linearGradient>
			<path id="Path_133" class="st74" d="M60.37,69.4c-0.26-2.33-0.42-3.73-0.42-3.73s6.56,20.29,11.75,20.75
				c0.83,0.02,1.63-0.25,2.28-0.76c-1.73-0.74-3.06-2.19-3.65-3.97c-2.13-5.64-2.44-11.14-6.1-14.49s-4.42-9.15-5.34-12.81
				C59.01,59.42,59.51,64.44,60.37,69.4z"/>
			
				<linearGradient id="Path_134_1_" gradientUnits="userSpaceOnUse" x1="-166.857" y1="452.4236" x2="-167.249" y2="453.3876" gradientTransform="matrix(43.421 0 0 -96.9471 7275.1509 43987.6641)">
				<stop  offset="0" style="stop-color:#F4BA38"/>
				<stop  offset="1" style="stop-color:#FFD349"/>
			</linearGradient>
			<path id="Path_134" class="st75" d="M0.01,75.59c0.46,4.12,6.1,8.08,6.1,8.08l6.01-6.71l0.55-0.61l-2.29-2.14l15.1-12.97
				c0,0,0.01,0.19,0.02,0.55c0.15,3.4,0.95,21.7,1.5,31.63c0.61,10.98-2.29,41.8-2.29,41.8s16.17,2.59,18.15-7.17
				s-1.98-51.25-2.13-55.68S34.25,38.6,34.25,38.6s-8.47,0.53-11.97,3.43S-0.45,71.47,0.01,75.59z"/>
			
				<linearGradient id="Path_135_1_" gradientUnits="userSpaceOnUse" x1="28.3592" y1="596.1293" x2="30.0241" y2="597.4122" gradientTransform="matrix(20.743 0 0 -26.392 3447.8706 11859.1338)">
				<stop  offset="0" style="stop-color:#FF911E"/>
				<stop  offset="1" style="stop-color:#FE931E;stop-opacity:0"/>
			</linearGradient>
			<path id="Path_135" class="st76" d="M6.87,72.84l5.25,4.12l0.55-0.61l-2.29-2.14l15.1-12.97c0,0,0.01,0.19,0.02,0.55l2.11-11.23
				c-2.97,3.56-5.67,7.33-8.08,11.29C14.96,69.18,6.87,72.84,6.87,72.84z"/>
			
				<linearGradient id="Path_136_1_" gradientUnits="userSpaceOnUse" x1="-92.4003" y1="530.3137" x2="-93.3183" y2="529.2756" gradientTransform="matrix(38.1473 0 0 -24.258 6389.6436 10912.9268)">
				<stop  offset="0" style="stop-color:#E85B7D"/>
				<stop  offset="1" style="stop-color:#FF78AF"/>
			</linearGradient>
			<path id="Path_136" class="st77" d="M6.11,83.67c7.17,4.27,22.42,12.2,22.42,12.2c0.57,0.72,1.3,1.3,2.13,1.68
				c1.68,0.92,7.02,0,7.63,0.3s1.83,3.05,2.13,2.9s-0.46-3.2-0.61-3.66s-3.97-1.83-3.97-1.83s3.97,0.76,4.42,1.37
				s2.75,3.81,2.9,3.66c-0.4-1.77-1.07-3.47-1.98-5.03c-1.35-0.8-2.77-1.47-4.24-2.01c1.51,0.15,2.99,0.52,4.39,1.09
				c0.92,0.46,2.29,2.75,2.75,2.9s-0.15-1.98-0.46-2.59s-4.42-3.05-5.61-3.51c-0.77-0.3-2.86,0.05-4.73,0.16
				c-0.88,0.1-1.76,0.04-2.62-0.16c-1.83-0.61-18-14.64-18-14.64l-1.68,1.83L6.11,83.67z"/>
			<path id="Path_137" class="st29" d="M10.99,78.34c2.62,1.98,12.94,9.75,15.84,11.73c1.87,1.35,4.23,1.8,6.46,1.24
				c-0.88,0.1-1.76,0.04-2.62-0.16c-1.83-0.61-18-14.64-18-14.64L10.99,78.34z"/>
			<path id="Path_138" class="st29" d="M41.87,12.03c1.88,1.81,4.01,3.34,6.33,4.54c-2.33-1.92-4.16-4.39-5.32-7.18
				C42.61,10.29,42.27,11.17,41.87,12.03z"/>
			
				<linearGradient id="Path_139_1_" gradientUnits="userSpaceOnUse" x1="52.2344" y1="-850.7968" x2="52.0371" y2="-849.6808" gradientTransform="matrix(1.171 0 0 -0.57 177.0831 78.1461)">
				<stop  offset="0" style="stop-color:#E85B7D"/>
				<stop  offset="1" style="stop-color:#FF78AF"/>
			</linearGradient>
			<path id="Path_139" class="st78" d="M45.11,33.06c0.33-0.09,0.66-0.2,0.97-0.34c0.07-0.03,0.14-0.07,0.2-0.12
				c-0.17-0.07-0.28-0.1-0.28-0.1C45.75,32.75,45.44,32.95,45.11,33.06z"/>
			
				<linearGradient id="Path_140_1_" gradientUnits="userSpaceOnUse" x1="-54.2089" y1="-1245.7809" x2="-54.2519" y2="-1245.2059" gradientTransform="matrix(0.887 0 0 -0.1835 127.2251 -97.3948)">
				<stop  offset="0" style="stop-color:#E85B7D"/>
				<stop  offset="1" style="stop-color:#FF78AF"/>
			</linearGradient>
			<path id="Path_140" class="st79" d="M43.26,33.01c0.28,0.13,0.58,0.19,0.89,0.18C43.85,33.18,43.55,33.12,43.26,33.01z"/>
			<path id="Path_141" class="st29" d="M39.29,29.44c0,0,0.12,5.72,4.54,6.44c-0.47-0.95-0.79-1.97-0.93-3.02
				C41.42,32.04,40.18,30.87,39.29,29.44z"/>
		</g>
		<g id="Group_27" transform="translate(397.455 53.425)">
			<path id="Path_142" class="st2" d="M56.7,0H6.95C4.39,0,2.33,2.07,2.33,4.62c0,0,0,0,0,0v35.59c0,1.69,0.92,3.25,2.41,4.06
				L0.08,57.49c-0.24,0.66,0.11,1.39,0.77,1.62c0.42,0.15,0.89,0.07,1.24-0.22l16.9-14.05H56.7c2.55,0,4.62-2.07,4.62-4.62l0,0V4.62
				C61.32,2.07,59.25,0,56.7,0C56.7,0,56.7,0,56.7,0z"/>
			<g id="Group_26" transform="translate(17.573 8.168)">
				<linearGradient id="Path_143_1_" gradientUnits="userSpaceOnUse" x1="1.270121e-05" y1="14.2479" x2="28.496" y2="14.2479">
					<stop  offset="0" style="stop-color:#F4BA38"/>
					<stop  offset="1" style="stop-color:#FFD349"/>
				</linearGradient>
				<path id="Path_143" class="st80" d="M28.5,14.23c0.01,7.87-6.36,14.26-14.23,14.27C6.4,28.51,0.01,22.14,0,14.27
					S6.36,0.01,14.23,0c0,0,0,0,0,0c7.85-0.03,14.24,6.31,14.27,14.17C28.5,14.19,28.5,14.21,28.5,14.23z"/>
				<path id="Path_144" class="st20" d="M23.46,25.12c-5.27,4.46-12.98,4.51-18.3,0.11c0.21-2.48,0.91-4.9,2.06-7.12
					c0.7-1.31,2.3-1.84,3.65-1.21c2.17,1,4.67,0.99,6.83-0.04c1.34-0.65,2.95-0.13,3.66,1.18C22.52,20.24,23.23,22.64,23.46,25.12z"
					/>
				<path id="Path_145" class="st20" d="M20.16,9.64c0,3.27-2.64,5.92-5.91,5.93c-3.27,0-5.92-2.64-5.93-5.91
					c0-3.27,2.64-5.92,5.91-5.93C17.5,3.72,20.16,6.37,20.16,9.64C20.16,9.64,20.16,9.64,20.16,9.64z"/>
			</g>
		</g>
		<g id="Group_29" transform="translate(0 53.471)">
			<path id="Path_146" class="st2" d="M58.99,40.21V4.62c0-2.55-2.07-4.62-4.62-4.62c0,0,0,0,0,0H4.62C2.07,0,0,2.07,0,4.62
				c0,0,0,0,0,0v35.59c0,2.55,2.07,4.62,4.62,4.62c0,0,0,0,0,0h36.31l15.28,16.22c0.33,0.35,0.87,0.36,1.21,0.04
				c0.22-0.2,0.31-0.5,0.25-0.79l-3.13-15.47C57.03,44.73,58.99,42.69,58.99,40.21z"/>
			<g id="Group_28" transform="translate(9.968 2.906)">
				<linearGradient id="Ellipse_3_1_" gradientUnits="userSpaceOnUse" x1="5.5271" y1="19.6038" x2="33.6998" y2="19.6038">
					<stop  offset="0" style="stop-color:#F4BA38"/>
					<stop  offset="1" style="stop-color:#FFD349"/>
				</linearGradient>
				<circle id="Ellipse_3" class="st81" cx="19.61" cy="19.6" r="14.09"/>
				<path id="Path_147" class="st20" d="M22.18,13.89c0,0,1.25-3.9,2.3-4.04s4.98,2.51,4.32,6.79s-6.59,10.49-11.19,10.87
					s-7.67-2.47-7.25-3.45s2.3-3.38,3.97-2.54s3.1,2.58,5.02,1.08s5.12-4.18,5.33-5.64S22.18,15.43,22.18,13.89z"/>
			</g>
		</g>
		<g id="Group_30" transform="translate(86.251 45.805)">
			<path id="Path_148" class="st2" d="M54.37,0H4.62C2.07,0,0,2.07,0,4.62l0,0v35.59c0,2.55,2.07,4.62,4.62,4.62h0h23.74
				l10.93,19.49c0.22,0.4,0.72,0.54,1.12,0.31c0.28-0.16,0.44-0.45,0.42-0.77l-1.24-19.03h14.79c2.55,0,4.62-2.07,4.62-4.62l0,0
				V4.62C58.99,2.07,56.92,0,54.37,0z"/>
			<linearGradient id="Path_149_1_" gradientUnits="userSpaceOnUse" x1="17.762" y1="23.79" x2="41.235" y2="23.79">
				<stop  offset="0" style="stop-color:#F4BA38"/>
				<stop  offset="1" style="stop-color:#FFD349"/>
			</linearGradient>
			<path id="Path_149" class="st82" d="M41.24,16.8v12.8c0,0.8-0.65,1.45-1.46,1.46H19.21c-0.8,0-1.45-0.65-1.45-1.46V16.8
				c0-0.09,0.01-0.18,0.03-0.27l10.47,5.9c0.77,0.44,1.71,0.44,2.48,0l10.46-5.9C41.22,16.61,41.24,16.71,41.24,16.8z"/>
			<linearGradient id="Path_150_1_" gradientUnits="userSpaceOnUse" x1="17.793" y1="17.1309" x2="41.207" y2="17.1309">
				<stop  offset="0" style="stop-color:#F4BA38"/>
				<stop  offset="1" style="stop-color:#FFD349"/>
			</linearGradient>
			<path id="Path_150" class="st83" d="M41.21,14.6l-10.46,5.9c-0.77,0.43-1.71,0.43-2.48,0l-10.47-5.9
				c0.01-0.02,0.01-0.05,0.02-0.07c0.07-0.3,0.24-0.57,0.48-0.76c0.22-0.2,0.5-0.31,0.79-0.33c0.04-0.01,0.09-0.02,0.13-0.02h20.57
				C40.48,13.43,41.08,13.92,41.21,14.6z"/>
			<path id="Path_151" class="st84" d="M13.98,13.58c-0.01,0.03-0.02,0.06-0.02,0.09l-0.03-0.02C13.95,13.63,13.96,13.6,13.98,13.58
				z"/>
		</g>
	</g>
</g>
</svg>
