<?xml version="1.0" encoding="utf-8"?>
<!-- Generator: Adobe Illustrator 24.0.2, SVG Export Plug-In . SVG Version: 6.00 Build 0)  -->
<svg version="1.1" id="Group_202" xmlns="http://www.w3.org/2000/svg" xmlns:xlink="http://www.w3.org/1999/xlink" x="0px" y="0px"
	 viewBox="0 0 1367 462" style="enable-background:new 0 0 1367 462;" xml:space="preserve">
<style type="text/css">
	.st0{opacity:0.32;}
	.st1{fill:url(#Path_152_1_);}
	.st2{opacity:0.2;fill:url(#Ellipse_68_2_);enable-background:new    ;}
	.st3{opacity:0.2;fill:url(#Ellipse_69_1_);enable-background:new    ;}
	.st4{opacity:0.2;fill:url(#Ellipse_70_1_);enable-background:new    ;}
	.st5{opacity:0.2;}
	.st6{fill:url(#SVGID_1_);}
	.st7{fill:url(#SVGID_2_);}
	.st8{opacity:0.2;fill:url(#Path_195_2_);enable-background:new    ;}
	.st9{fill:#EA5F1B;enable-background:new    ;}
	.st10{opacity:0.2;fill:#FFFFFF;enable-background:new    ;}
	.st11{fill:#EA5F1B;}
</style>
<g id="Group_182" transform="translate(0)" class="st0">
	<linearGradient id="Path_152_1_" gradientUnits="userSpaceOnUse" x1="0" y1="217.2143" x2="1370.1333" y2="217.2143">
		<stop  offset="0.352" style="stop-color:#FFFFFF"/>
		<stop  offset="1" style="stop-color:#EA911B"/>
	</linearGradient>
	<path id="Path_152" class="st1" d="M0,434.4c0,0,138.5-61.9,310-66.6c171.5-4.7,208.5,44.2,376,48.1c167.5,3.8,159.5-63.3,308-68.8
		s188.5,50.7,286,47c97.5-3.8,90-26.2,90-26.2V0H0V434.4z"/>
	<linearGradient id="Ellipse_68_2_" gradientUnits="userSpaceOnUse" x1="481.4333" y1="569.5" x2="508.4333" y2="569.5">
		<stop  offset="0.352" style="stop-color:#FFFFFF"/>
		<stop  offset="1" style="stop-color:#EA911B"/>
	</linearGradient>
	<circle id="Ellipse_68_1_" class="st2" cx="494.9" cy="569.5" r="13.5"/>
	<linearGradient id="Ellipse_69_1_" gradientUnits="userSpaceOnUse" x1="320.4333" y1="60.5" x2="351.4333" y2="60.5">
		<stop  offset="0.352" style="stop-color:#FFFFFF"/>
		<stop  offset="1" style="stop-color:#EA911B"/>
	</linearGradient>
	<circle id="Ellipse_69" class="st3" cx="335.9" cy="60.5" r="15.5"/>
	<linearGradient id="Ellipse_70_1_" gradientUnits="userSpaceOnUse" x1="1145.4333" y1="53" x2="1161.4333" y2="53">
		<stop  offset="0.352" style="stop-color:#FFFFFF"/>
		<stop  offset="1" style="stop-color:#EA911B"/>
	</linearGradient>
	<circle id="Ellipse_70" class="st4" cx="1153.4" cy="53" r="8"/>
	<g id="Path_155" transform="matrix(0.259, 0.966, -0.966, 0.259, 73.396, 351.263)" class="st5">
		<linearGradient id="SVGID_1_" gradientUnits="userSpaceOnUse" x1="31.3493" y1="71.0513" x2="94.2889" y2="71.0513">
			<stop  offset="0.352" style="stop-color:#FFFFFF"/>
			<stop  offset="1" style="stop-color:#EA911B"/>
		</linearGradient>
		<path class="st6" d="M25.2,13.7C28.6,7.8,36,5.8,41.9,9.1c1.9,1.1,3.5,2.7,4.6,4.6l19.7,34.5c3.4,5.9,1.3,13.4-4.6,16.7
			c-1.9,1.1-3.9,1.6-6.1,1.6H16.1C9.3,66.5,3.8,61,3.8,54.2c0-2.1,0.6-4.2,1.6-6.1L25.2,13.7z"/>
		<linearGradient id="SVGID_2_" gradientUnits="userSpaceOnUse" x1="31.3879" y1="71.1708" x2="94.3575" y2="71.1708">
			<stop  offset="0.352" style="stop-color:#FFFFFF"/>
			<stop  offset="1" style="stop-color:#EA911B"/>
		</linearGradient>
		<path class="st7" d="M35.9,15.6c-0.7,0-2.6,0.2-3.7,2.1L12.4,52.3c-1.1,1.9-0.4,3.6,0,4.3s1.5,2.1,3.7,2.1h39.5
			c2.2,0,3.3-1.5,3.7-2.1c0.4-0.6,1.1-2.3,0-4.3L39.6,17.7C38.5,15.8,36.6,15.6,35.9,15.6 M35.9,7.6c4.1,0,8.3,2.1,10.6,6.2
			l19.7,34.5c4.7,8.2-1.2,18.3-10.6,18.3H16.1c-9.4,0-15.3-10.1-10.6-18.3l19.7-34.5C27.6,9.6,31.7,7.6,35.9,7.6z"/>
	</g>
	<linearGradient id="Path_195_2_" gradientUnits="userSpaceOnUse" x1="1231.4333" y1="579.5" x2="1278.4333" y2="579.5">
		<stop  offset="0.352" style="stop-color:#FFFFFF"/>
		<stop  offset="1" style="stop-color:#EA911B"/>
	</linearGradient>
	<path id="Path_195_1_" class="st8" d="M1254.9,603c-6.2,0-12.2-2.5-16.6-6.9s-6.9-10.4-6.9-16.6c0-6.2,2.5-12.2,6.9-16.6
		c4.4-4.4,10.4-6.9,16.6-6.9s12.2,2.5,16.6,6.9s6.9,10.4,6.9,16.6c0,6.2-2.5,12.2-6.9,16.6C1267.1,600.5,1261.1,603,1254.9,603z
		 M1254.9,562.7c-9.3,0-16.8,7.5-16.8,16.8s7.5,16.8,16.8,16.8s16.8-7.5,16.8-16.8S1264.2,562.7,1254.9,562.7z"/>
</g>
<path id="Path_195" class="st9" d="M78.5,319c-6.2,0-12.2-2.5-16.6-6.9S55,301.7,55,295.5s2.5-12.2,6.9-16.6s10.4-6.9,16.6-6.9
	s12.2,2.5,16.6,6.9s6.9,10.4,6.9,16.6s-2.5,12.2-6.9,16.6S84.7,319,78.5,319z M78.5,278.7c-9.3,0-16.8,7.5-16.8,16.8
	s7.5,16.8,16.8,16.8s16.8-7.5,16.8-16.8S87.8,278.7,78.5,278.7z"/>
<path id="Path_342" class="st9" d="M971.6,99c-3.1,0-6-1.2-8.2-3.4c-2.2-2.2-3.4-5.1-3.4-8.2s1.2-6,3.4-8.2s5.1-3.4,8.2-3.4
	c3.1,0,6,1.2,8.2,3.4c2.2,2.2,3.4,5.1,3.4,8.2s-1.2,6-3.4,8.2C977.7,97.8,974.7,99,971.6,99z M971.6,79.1c-4.6,0-8.3,3.7-8.3,8.3
	c0,4.6,3.7,8.3,8.3,8.3s8.3-3.7,8.3-8.3C979.9,82.8,976.2,79.1,971.6,79.1z"/>
<circle id="Ellipse_81" class="st9" cx="1252.5" cy="172.5" r="18.5"/>
<circle id="Ellipse_68" class="st10" cx="622.5" cy="375.5" r="8.5"/>
<g id="Path_344" transform="matrix(-0.839, 0.545, -0.545, -0.839, 181.642, 48.728)">
	<path class="st11" d="M-263.1-506.7c2-3.5,6.5-4.7,10-2.7c1.1,0.6,2.1,1.6,2.7,2.7l11.8,20.6c2,3.5,0.8,8-2.7,10
		c-1.1,0.6-2.4,1-3.6,1h-23.6c-4,0-7.3-3.3-7.3-7.3c0-1.3,0.3-2.5,1-3.6L-263.1-506.7z"/>
	<path class="st11" d="M-256.8-506.4c-0.6,0-2,0.2-2.9,1.7l-11.7,20.6c-0.9,1.5-0.3,2.8,0,3.3c0.3,0.5,1.1,1.7,2.9,1.7h23.6
		c1.7,0,2.6-1.2,2.9-1.7c0.3-0.5,0.9-1.8,0-3.3l-11.9-20.6C-254.7-506.2-256.2-506.4-256.8-506.4 M-256.8-510.4c2.5,0,5,1.2,6.4,3.7
		l11.8,20.6c2.8,4.9-0.7,11-6.4,11h-23.5c-5.6,0-9.1-6.1-6.4-11l11.8-20.6C-261.7-509.2-259.2-510.4-256.8-510.4z"/>
</g>
<circle id="Ellipse_82" class="st9" cx="295.5" cy="294.5" r="9.5"/>
<circle id="Ellipse_80_5_" class="st9" cx="358.6" cy="159" r="13.5"/>
<circle id="Ellipse_80_6_" class="st9" cx="874.9" cy="197.2" r="13.5"/>
<ellipse id="Ellipse_80_7_" class="st9" cx="95.3" cy="145.5" rx="13.5" ry="11.5"/>
<g id="Path_343_1_" transform="matrix(0.259, 0.966, -0.966, 0.259, 710.181, 49.242)">
	<path class="st11" d="M382.4-313.2c2.2-3.9,7.2-5.3,11.1-3c1.3,0.7,2.3,1.8,3,3l13.1,23c2.2,3.9,0.9,8.9-3,11.1
		c-1.2,0.7-2.6,1.1-4.1,1.1h-26.2c-4.5,0-8.2-3.7-8.2-8.2c0-1.4,0.4-2.8,1.1-4.1L382.4-313.2z"/>
	<path class="st11" d="M389.5-312.3c-0.6,0-1.9,0.2-2.7,1.6l-13.1,23c-0.8,1.4-0.3,2.7,0,3.2c0.3,0.5,1.1,1.6,2.7,1.6h26.3
		c1.6,0,2.5-1.1,2.7-1.6c0.3-0.5,0.8-1.7,0-3.2l-4.6-18.2C399.8-307.3,390-312.3,389.5-312.3 M389.5-317.3c2.8,0,5.5,1.4,7.1,4.1
		l13.1,23c3.1,5.4-0.8,12.2-7.1,12.2h-26.3c-6.3,0-10.2-6.8-7.1-12.2l13.1-23C383.9-315.9,386.7-317.3,389.5-317.3z"/>
</g>
<path id="Path_342_1_" class="st9" d="M594.1,110.6c-3.1,0-6-1.2-8.2-3.4c-2.2-2.2-3.4-5.1-3.4-8.2s1.2-6,3.4-8.2s5.1-3.4,8.2-3.4
	c3.1,0,6,1.2,8.2,3.4c2.2,2.2,3.4,5.1,3.4,8.2s-1.2,6-3.4,8.2C600.2,109.4,597.2,110.6,594.1,110.6z M594.1,90.7
	c-4.6,0-8.3,3.7-8.3,8.3c0,4.6,3.7,8.3,8.3,8.3s8.3-3.7,8.3-8.3C602.4,94.4,598.7,90.7,594.1,90.7z"/>
</svg>
